<?xml version="1.0" encoding="utf-8"?>
<!-- Generator: Adobe Illustrator 16.0.2, SVG Export Plug-In . SVG Version: 6.00 Build 0)  -->
<!DOCTYPE svg PUBLIC "-//W3C//DTD SVG 1.1//EN" "http://www.w3.org/Graphics/SVG/1.1/DTD/svg11.dtd">
<svg version="1.1" id="Layer_1" xmlns="http://www.w3.org/2000/svg" xmlns:xlink="http://www.w3.org/1999/xlink" x="0px" y="0px"
	 width="92.218px" height="43.792px" viewBox="144.951 131.708 92.218 43.792"
	 style="enable-background:new 144.951 131.708 92.218 43.792;" xml:space="preserve">
<rect x="144.951" y="131.708" style="display:none;fill:#0D0933;" width="148.379" height="47.411"/>
<g>
	<rect x="144.951" y="131.708" style="display:none;fill:#0D0933;" width="89.106" height="28.472"/>
	<g>
		<g>
			<path style="fill:none;" d="M229.068,149.762v0.468c-0.077-0.052-0.155-0.103-0.246-0.129
				C228.888,149.972,228.966,149.844,229.068,149.762z"/>
		</g>
		<g>
			<path style="fill:none;" d="M210.742,145.709c-0.645,0-1.269,0.08-1.889,0.248l0.674-6.449h7.642v0.672
				c-0.416,0-0.752,0.336-0.752,0.75v2.749c0,0.412,0.336,0.749,0.752,0.749c0.412,0,0.749-0.337,0.749-0.749v-2.749
				c0-0.257-0.13-0.49-0.337-0.633v-0.789h0.519l0.816,7.745h-3.095c0-2.009-2.1-0.583-3.214-2.189
				c-0.854-1.212,0.414-3.186-1.839-3.186v3.831H210.742z"/>
		</g>
		<g>
			<path style="fill:none;" d="M225.027,154.531c0,0.024,0,0.051,0,0.074c0,1.117,0.92,2.046,2.046,2.046
				c1.127,0,2.033-0.929,2.033-2.046c0.014-1.137-0.88-2.046-2.007-2.071C225.974,152.51,225.041,153.415,225.027,154.531z
				 M226.302,154.58c0-0.465,0.362-0.827,0.814-0.827c0.443,0,0.816,0.362,0.816,0.827c0,0.442-0.373,0.804-0.816,0.804
				C226.664,155.384,226.302,155.022,226.302,154.58z"/>
		</g>
		<g>
			<path style="fill:none;" d="M207.945,153.002c0.001,1.553,1.269,2.798,2.823,2.822c1.556,0,2.848-1.27,2.848-2.85
				c0-1.579-1.292-2.851-2.848-2.851C209.188,150.127,207.92,151.423,207.945,153.002z M209.521,152.948
				c0-0.673,0.545-1.217,1.24-1.217c0.674,0,1.218,0.544,1.218,1.217c0,0.675-0.544,1.219-1.218,1.219
				C210.066,154.167,209.521,153.623,209.521,152.948z"/>
		</g>
		<g>
			<path style="fill:none;" d="M218.333,151.449l1.903-2.772h8.831v0.103c-0.465,0.207-0.828,0.597-1.022,1.062
				c-1.023-0.231-2.098-0.078-3.107,0.415c-1.438,0.701-2.37,2.044-2.563,3.602h-6.398c0.051-0.286,0.077-0.572,0.077-0.883
				c0-0.518-0.077-1.033-0.209-1.525H218.333z"/>
		</g>
		<g>
			<path style="fill:none;" d="M208.463,138.795c-0.022-0.025-0.025-0.052-0.025-0.104v-0.87c0-0.053,0.003-0.087,0.025-0.113
				c0,0,0.026,0,0.052,0h10.529c0.014,0,0.027,0,0.053,0c0,0.026,0.012,0.061,0.012,0.113v0.87c0,0.034-0.012,0.065-0.012,0.104
				c-0.025,0-0.039,0-0.053,0h-10.529C208.489,138.795,208.463,138.795,208.463,138.795z"/>
		</g>
		<g>
			<path style="fill:none;" d="M210.741,146.359c2.541,0,4.664,1.334,5.725,3.612l-0.956,0.516
				c-0.985-1.891-2.798-3.055-4.769-3.055c-1.94,0-3.729,1.115-4.739,2.953l-0.933-0.439
				C206.158,147.692,208.257,146.359,210.741,146.359z"/>
		</g>
		<g>
			<path style="fill:none;" d="M229.923,148.573c-0.065,0-0.142,0.023-0.207,0.025v-0.261h0.207V148.573z"/>
		</g>
		<g>
			<path style="fill:none;" d="M219.653,144.737l8.793,1.322c0.208,0.312,0.531,1.027,0.79,1.607h-9.583V144.737z"/>
		</g>
		<g>
			<circle style="fill:none;" cx="184.229" cy="151.586" r="0.625"/>
		</g>
		<g>
			<path style="fill:none;" d="M197.594,150.885v1.396h-1.296c-0.025,0.002-0.047,0.013-0.072,0.016v-1.428
				c0.025,0.004,0.047,0.016,0.072,0.016H197.594z"/>
		</g>
		<g>
			<path style="fill:none;" d="M148.658,149.256c0.448-0.339,0.763-1.026,0.94-1.502c0.082-0.221,0.375-0.296,0.541-0.129
				c0.104,0.103,0.265,0.118,0.386,0.038l1.201-0.802c0.146-0.096,0.342-0.077,0.467,0.047c0.171,0.172,0.134,0.463-0.059,0.611
				c-0.271,0.208-0.604,0.514-0.71,0.837c-0.348,1.04,0.179,1.559,0.615,1.991c0.261,0.258,0.492,0.486,0.492,0.776
				c0,1.107,1.384,4.982,3.321,4.982c2.023,0,1.933-1.151,1.839-2.351c-0.059-0.771-0.121-1.563,0.377-2.077
				c0.408-0.429,0.934-0.558,1.442-0.686c0.963-0.238,1.878-0.468,1.878-2.637c0-1.528-1.438-2.77-2.767-2.77
				c-1.938,0-2.52,0.181-3.072,0.353l-0.012,0.004c-0.464,0.144-0.975-0.086-1.146-0.539c-0.179-0.471-0.1-0.785,0.769-0.888
				c0.092-0.011,0.183-0.029,0.27-0.061l1.089-0.376c0.281-0.098,0.591-0.078,0.857,0.055l0.289,0.146
				c0.253,0.125,0.55,0.125,0.803,0c0.404-0.202,0.894-0.071,1.145,0.304l0.271,0.408c0.253,0.386,0.749,0.528,1.169,0.337
				c0.472-0.213,0.683-0.769,0.469-1.239l-0.319-0.716c1.865,1.469,2.954,3.713,2.954,6.087c0,4.281-3.47,7.752-7.75,7.752
				c-4.28,0.001-7.751-3.47-7.751-7.751L148.658,149.256z"/>
		</g>
		<g>
			<path style="fill:none;" d="M184.8,146.534h2.824c1.108-0.001,2.079-0.689,2.378-1.686c0.371-1.229-0.397-2.504-1.711-2.849
				c-0.206-1.344-1.132-2.496-2.454-3.055c-2.134-0.9-4.646-0.013-5.605,1.98c-1.362,0.354-2.288,1.528-2.242,2.848
				c0.055,1.577,1.472,2.813,3.158,2.761h2.238l0.354,0.003c0.438,0,0.154-0.009,0.593-0.009l0.319,0.009L184.8,146.534z
				 M185.867,146.078h-3.196c-0.226,0-0.414-0.078-0.568-0.23c-0.153-0.152-0.229-0.342-0.229-0.568v-2.396
				c0-0.225,0.076-0.415,0.229-0.569c0.154-0.151,0.343-0.229,0.568-0.229v-0.719c0-0.466,0.153-0.86,0.46-1.187
				s0.686-0.491,1.14-0.491c0.438,0,0.814,0.157,1.126,0.469c0.313,0.313,0.471,0.691,0.471,1.129v0.799
				c0.225,0,0.416,0.077,0.568,0.229c0.152,0.154,0.229,0.345,0.229,0.569v2.396c0,0.227-0.077,0.416-0.229,0.568
				S186.092,146.078,185.867,146.078z"/>
		</g>
		<g>
			<path style="fill:none;" d="M172.176,150.889v1.396h-1.294c-0.027,0-0.049,0.012-0.073,0.015v-1.428
				c0.024,0.004,0.046,0.016,0.073,0.017H172.176z"/>
		</g>
		<g>
			<path style="fill:none;" d="M184.271,143.483c0.172,0,0.314,0.055,0.426,0.169c0.114,0.114,0.172,0.258,0.172,0.431
				c0,0.171-0.058,0.314-0.172,0.427c-0.111,0.114-0.254,0.17-0.426,0.17c-0.173,0-0.318-0.056-0.432-0.17
				c-0.113-0.112-0.168-0.256-0.168-0.427c0-0.173,0.055-0.316,0.168-0.431S184.098,143.483,184.271,143.483z"/>
		</g>
		<g>
			<path style="fill:none;" d="M184.271,140.487c0.226,0,0.414,0.077,0.566,0.23c0.155,0.153,0.23,0.342,0.23,0.568v0.799h-1.598
				v-0.799c0-0.227,0.076-0.415,0.229-0.568C183.854,140.564,184.043,140.487,184.271,140.487z"/>
		</g>
		<g>
			<path style="fill:none;" d="M179.444,140.218c-0.4,0.111-0.767,0.288-1.096,0.509c-0.302-0.179-0.549-0.413-0.739-0.712
				c-0.236-0.366-0.346-0.771-0.331-1.211c0.02-0.592,0.247-1.092,0.684-1.497c0.436-0.41,0.95-0.604,1.542-0.584
				c0.538,0.02,1.003,0.209,1.396,0.573c0.212,0.196,0.37,0.423,0.484,0.672C180.561,138.498,179.875,139.259,179.444,140.218z"/>
		</g>
		<g>
			<path style="fill:#9ACA31;" d="M210.762,151.731c0.674,0,1.218,0.544,1.218,1.217c0,0.675-0.544,1.219-1.218,1.219
				c-0.695,0-1.24-0.544-1.24-1.219C209.521,152.275,210.066,151.731,210.762,151.731z"/>
		</g>
		<g>
			<path style="fill:#9ACA31;" d="M227.116,153.753c0.443,0,0.816,0.362,0.816,0.827c0,0.442-0.373,0.804-0.816,0.804
				c-0.452,0-0.814-0.361-0.814-0.804C226.302,154.115,226.664,153.753,227.116,153.753z"/>
		</g>
		<g>
			<path style="fill:#9ACA31;" d="M147.549,149.462c0,4.893,3.967,8.858,8.858,8.858c3.933,0,7.264-2.565,8.42-6.111h1.372
				c0.28,1.197,1.35,2.046,2.577,2.046h0.941l0.001-0.001c0.484,0.001,0.89-0.316,1.031-0.752c0.044,0.01,0.084,0.027,0.132,0.028
				h1.294v0.258c0,0.259,0.209,0.466,0.467,0.467h1.563c1.229,0,2.297-0.849,2.578-2.046h1.583c0.007,0,0.014,0,0.021,0
				c0.034,0,0.063-0.016,0.096-0.021c0.038,0.007,0.074,0.023,0.114,0.023h3.864c0.191,0.522,0.603,0.934,1.126,1.124
				c0.975,0.354,2.05-0.149,2.404-1.124h3.867c0.036,0,0.067-0.016,0.103-0.022c0.024,0.004,0.045,0.016,0.071,0.017h1.583
				c0.279,1.198,1.348,2.047,2.577,2.047h0.941l0.001-0.001c0.482,0.001,0.889-0.317,1.031-0.754
				c0.044,0.012,0.084,0.028,0.13,0.029h1.296v0.258c0,0.259,0.209,0.467,0.467,0.468h1.563c1.23,0,2.299-0.849,2.579-2.047h1.583
				c0.004,0,0.933,0.006,1.732,0.011c-0.034,0.246-0.059,0.497-0.059,0.758c0,2.928,2.382,5.309,5.31,5.309
				c2.383,0,4.403-1.58,5.053-3.754h6.513c0,0.076,0,0.155,0.014,0.233h1.061c0.079,1.944,1.685,3.521,3.665,3.521
				c2.021,0,3.665-1.655,3.665-3.678c0-1.034-0.427-2.017-1.191-2.716h1.191v-1.271h-0.983c-0.014,0-0.014-0.001-0.026-0.002
				l-0.012-1.191c0.075-0.022,0.141-0.024,0.206-0.024v0.364h0.815v-6.114h-0.815v3.964c-0.221-0.542-0.736-1.684-1.048-2.059
				l-0.078-0.093l-9.182-1.397l-0.608-4.61h0.037c0.323,0,0.713-0.142,0.713-0.765v-0.87c0-0.632-0.39-0.762-0.713-0.762h-10.529
				c-0.335,0-0.724,0.13-0.724,0.762v0.87c0,0.623,0.389,0.765,0.724,0.765h0.104l-0.906,6.941
				c-1.477,0.719-2.669,1.968-3.369,3.599l-0.127,0.286l1.474,0.689l-3.488-0.01c-0.28-1.198-1.349-2.046-2.578-2.046h-1.563
				c-0.258,0-0.467,0.209-0.467,0.467v0.258h-1.296c-0.046,0-0.087,0.019-0.131,0.028c-0.142-0.436-0.548-0.753-1.031-0.753h-0.941
				c-1.229,0-2.298,0.848-2.577,2.046h-1.583c-0.029,0.001-0.055,0.014-0.084,0.019c-0.03-0.006-0.058-0.019-0.09-0.019h-3.867
				c-0.189-0.532-0.606-0.95-1.138-1.139v-1.424l0.001-0.694l3.752-0.045c1.373-0.002,2.576-0.916,2.946-2.236
				c0.458-1.63-0.494-3.321-2.122-3.778c-0.253-1.784-1.4-3.313-3.041-4.054c-1.318-0.594-2.751-0.601-4.006-0.13
				c-0.178-0.369-0.423-0.701-0.752-0.988c-0.597-0.523-1.296-0.798-2.093-0.825c-0.898-0.03-1.673,0.258-2.32,0.864
				c-0.648,0.606-0.988,1.359-1.019,2.258c-0.022,0.689,0.153,1.318,0.529,1.882c0.219,0.332,0.489,0.602,0.8,0.826
				c-0.566,0.692-0.896,1.573-0.864,2.517c0.069,2.093,1.823,3.733,3.914,3.665l3.028-0.003l-0.006,0.742v1.424
				c-0.532,0.188-0.949,0.606-1.141,1.139h-3.864c-0.043,0-0.079,0.015-0.12,0.024c-0.037-0.008-0.071-0.022-0.111-0.021
				l-1.583-0.001c-0.281-1.197-1.349-2.045-2.578-2.045h-1.563c-0.258,0-0.467,0.209-0.467,0.466v0.259h-1.294
				c-0.048,0.001-0.088,0.018-0.133,0.028c-0.142-0.436-0.547-0.753-1.031-0.753h-0.941c-1.229,0-2.298,0.848-2.577,2.046h-1.07
				c0.085-0.489,0.137-0.989,0.137-1.502c0-4.892-3.967-8.857-8.858-8.857S147.549,144.57,147.549,149.462z M229.716,148.338h0.207
				v0.235c-0.065,0-0.142,0.023-0.207,0.025V148.338z M208.515,138.795c-0.025,0-0.052,0-0.052,0
				c-0.022-0.025-0.025-0.052-0.025-0.104v-0.87c0-0.053,0.003-0.087,0.025-0.113c0,0,0.026,0,0.052,0h10.529
				c0.014,0,0.027,0,0.053,0c0,0.026,0.012,0.061,0.012,0.113v0.87c0,0.034-0.012,0.065-0.012,0.104c-0.025,0-0.039,0-0.053,0
				H208.515z M210.769,141.878v3.831h-0.026c-0.645,0-1.269,0.08-1.889,0.248l0.674-6.449h7.642v0.672
				c-0.416,0-0.752,0.336-0.752,0.75v2.749c0,0.412,0.336,0.749,0.752,0.749c0.412,0,0.749-0.337,0.749-0.749v-2.749
				c0-0.257-0.13-0.49-0.337-0.633v-0.789h0.519l0.816,7.745h-3.095c0-2.009-2.1-0.583-3.214-2.189
				C211.754,143.852,213.021,141.878,210.769,141.878z M229.236,147.667h-9.583v-2.93l8.793,1.322
				C228.654,146.371,228.978,147.087,229.236,147.667z M229.068,150.229c-0.077-0.052-0.155-0.103-0.246-0.129
				c0.065-0.129,0.144-0.257,0.246-0.339V150.229z M225.027,154.531c0.014-1.116,0.946-2.021,2.072-1.997
				c1.127,0.025,2.021,0.935,2.007,2.071c0,1.117-0.906,2.046-2.033,2.046c-1.126,0-2.046-0.929-2.046-2.046
				C225.027,154.582,225.027,154.556,225.027,154.531z M216.054,152.975c0-0.518-0.077-1.033-0.209-1.525h2.488l1.903-2.772h8.831
				v0.103c-0.465,0.207-0.828,0.597-1.022,1.062c-1.023-0.231-2.098-0.078-3.107,0.415c-1.438,0.701-2.37,2.044-2.563,3.602h-6.398
				C216.027,153.571,216.054,153.285,216.054,152.975z M207.945,153.002c-0.025-1.579,1.243-2.875,2.823-2.878
				c1.556,0,2.848,1.271,2.848,2.851c0,1.58-1.292,2.85-2.848,2.85C209.214,155.8,207.946,154.555,207.945,153.002z
				 M206.002,150.386l-0.933-0.439c1.089-2.254,3.188-3.587,5.672-3.587c2.541,0,4.664,1.334,5.725,3.612l-0.956,0.516
				c-0.985-1.891-2.798-3.055-4.769-3.055C208.801,147.433,207.013,148.548,206.002,150.386z M196.226,150.869
				c0.025,0.004,0.047,0.016,0.072,0.016h1.296v1.396h-1.296c-0.025,0.002-0.047,0.013-0.072,0.016V150.869z M181.384,137.968
				c-0.823,0.53-1.509,1.291-1.939,2.25c-0.4,0.111-0.767,0.288-1.096,0.509c-0.302-0.179-0.549-0.413-0.739-0.712
				c-0.236-0.366-0.346-0.771-0.331-1.211c0.02-0.592,0.247-1.092,0.684-1.497c0.436-0.41,0.95-0.604,1.542-0.584
				c0.538,0.02,1.003,0.209,1.396,0.573C181.111,137.492,181.27,137.719,181.384,137.968z M184.8,146.534l-0.148,0.003l-0.319-0.009
				c-0.438,0-0.155,0.009-0.593,0.009l-0.354-0.003h-2.238c-1.687,0.053-3.104-1.184-3.158-2.761
				c-0.046-1.319,0.88-2.494,2.242-2.848c0.96-1.993,3.472-2.881,5.605-1.98c1.322,0.559,2.248,1.711,2.454,3.055
				c1.313,0.345,2.082,1.62,1.711,2.849c-0.299,0.996-1.27,1.685-2.378,1.686H184.8z M183.604,151.586
				c0-0.345,0.28-0.625,0.625-0.625c0.347,0,0.627,0.28,0.627,0.625s-0.28,0.626-0.627,0.626
				C183.884,152.212,183.604,151.931,183.604,151.586z M170.809,150.872c0.024,0.004,0.046,0.016,0.073,0.017h1.294v1.396h-1.294
				c-0.027,0-0.049,0.012-0.073,0.015V150.872z M148.657,149.462l0.001-0.206c0.448-0.339,0.763-1.026,0.94-1.502
				c0.082-0.221,0.375-0.296,0.541-0.129c0.104,0.103,0.265,0.118,0.386,0.038l1.201-0.802c0.146-0.096,0.342-0.077,0.467,0.047
				c0.171,0.172,0.134,0.463-0.059,0.611c-0.271,0.208-0.604,0.514-0.71,0.837c-0.348,1.04,0.179,1.559,0.615,1.991
				c0.261,0.258,0.492,0.486,0.492,0.776c0,1.107,1.384,4.982,3.321,4.982c2.023,0,1.933-1.151,1.839-2.351
				c-0.059-0.771-0.121-1.563,0.377-2.077c0.408-0.429,0.934-0.558,1.442-0.686c0.963-0.238,1.878-0.468,1.878-2.637
				c0-1.528-1.438-2.77-2.767-2.77c-1.938,0-2.52,0.181-3.072,0.353l-0.012,0.004c-0.464,0.144-0.975-0.086-1.146-0.539
				c-0.179-0.471-0.1-0.785,0.769-0.888c0.092-0.011,0.183-0.029,0.27-0.061l1.089-0.376c0.281-0.098,0.591-0.078,0.857,0.055
				l0.289,0.146c0.253,0.125,0.55,0.125,0.803,0c0.404-0.202,0.894-0.071,1.145,0.304l0.271,0.408
				c0.253,0.386,0.749,0.528,1.169,0.337c0.472-0.213,0.683-0.769,0.469-1.239l-0.319-0.716c1.865,1.469,2.954,3.713,2.954,6.087
				c0,4.281-3.47,7.752-7.75,7.752C152.128,157.214,148.657,153.743,148.657,149.462z"/>
		</g>
		<g>
			<path style="fill:#9ACA31;" d="M182.671,146.078h3.196c0.225,0,0.416-0.078,0.568-0.23s0.229-0.342,0.229-0.568v-2.396
				c0-0.225-0.077-0.415-0.229-0.569c-0.152-0.151-0.344-0.229-0.568-0.229v-0.799c0-0.438-0.158-0.815-0.471-1.129
				c-0.312-0.312-0.688-0.469-1.126-0.469c-0.454,0-0.833,0.165-1.14,0.491s-0.46,0.721-0.46,1.187v0.719
				c-0.226,0-0.414,0.077-0.568,0.229c-0.153,0.154-0.229,0.345-0.229,0.569v2.396c0,0.227,0.076,0.416,0.229,0.568
				C182.257,146,182.445,146.078,182.671,146.078z M183.671,144.083c0-0.173,0.055-0.316,0.168-0.431s0.259-0.169,0.432-0.169
				c0.172,0,0.314,0.055,0.426,0.169c0.114,0.114,0.172,0.258,0.172,0.431c0,0.171-0.058,0.314-0.172,0.427
				c-0.111,0.114-0.254,0.17-0.426,0.17c-0.173,0-0.318-0.056-0.432-0.17C183.726,144.397,183.671,144.254,183.671,144.083z
				 M183.47,141.286c0-0.227,0.076-0.415,0.229-0.568c0.155-0.153,0.344-0.23,0.571-0.23c0.226,0,0.414,0.077,0.566,0.23
				c0.155,0.153,0.23,0.342,0.23,0.568v0.799h-1.598V141.286z"/>
		</g>
		<g>
			
				<rect x="178.517" y="133.494" transform="matrix(-0.0331 0.9995 -0.9995 -0.0331 319.494 -41.0308)" style="fill:#9ACA31;" width="2.155" height="1.078"/>
		</g>
		<g>
			<polygon style="fill:#9ACA31;" points="174.997,134.915 175.776,134.175 177.246,135.759 176.468,136.486 			"/>
		</g>
		<g>
			
				<rect x="173.509" y="138.175" transform="matrix(0.9995 0.0331 -0.0331 0.9995 4.6854 -5.7008)" style="fill:#9ACA31;" width="2.155" height="1.078"/>
		</g>
		<g>
			<polygon style="fill:#9ACA31;" points="177.042,141.841 175.47,143.312 174.729,142.518 176.314,141.063 			"/>
		</g>
		<g>
			<polygon style="fill:#9ACA31;" points="181.822,135.913 183.38,134.429 184.122,135.221 182.55,136.691 			"/>
		</g>
	</g>
</g>
<g>
	<path style="fill:#99C72F;" d="M155.798,166.038h-1.336c-0.038-0.219-0.108-0.413-0.211-0.583s-0.229-0.314-0.381-0.434
		c-0.153-0.119-0.325-0.209-0.521-0.27c-0.193-0.062-0.402-0.092-0.625-0.092c-0.398,0-0.751,0.1-1.058,0.299
		c-0.308,0.198-0.547,0.489-0.721,0.87c-0.174,0.383-0.262,0.849-0.262,1.397c0,0.56,0.089,1.03,0.264,1.412
		c0.175,0.383,0.414,0.671,0.721,0.864c0.305,0.194,0.655,0.291,1.051,0.291c0.22,0,0.424-0.028,0.616-0.087
		c0.191-0.06,0.364-0.145,0.518-0.259c0.154-0.115,0.283-0.255,0.389-0.422c0.106-0.167,0.18-0.356,0.22-0.571l1.336,0.007
		c-0.051,0.349-0.158,0.674-0.323,0.979c-0.166,0.305-0.382,0.573-0.648,0.805c-0.267,0.232-0.578,0.414-0.936,0.543
		c-0.356,0.13-0.753,0.195-1.188,0.195c-0.643,0-1.216-0.149-1.72-0.447c-0.506-0.297-0.903-0.727-1.193-1.288
		c-0.29-0.563-0.436-1.235-0.436-2.021c0-0.787,0.146-1.462,0.439-2.021c0.293-0.561,0.691-0.989,1.196-1.286
		c0.504-0.299,1.075-0.447,1.713-0.447c0.406,0,0.785,0.058,1.136,0.172c0.35,0.114,0.661,0.281,0.935,0.501
		c0.274,0.221,0.499,0.489,0.677,0.808C155.627,165.27,155.742,165.632,155.798,166.038z"/>
	<path style="fill:#99C72F;" d="M159.349,170.99c-0.535,0-0.999-0.118-1.392-0.354c-0.393-0.236-0.696-0.565-0.912-0.989
		c-0.215-0.424-0.322-0.918-0.322-1.484s0.107-1.063,0.322-1.489c0.216-0.426,0.52-0.756,0.912-0.992s0.856-0.354,1.392-0.354
		c0.536,0,1,0.117,1.393,0.354s0.697,0.566,0.912,0.992c0.216,0.427,0.323,0.923,0.323,1.489s-0.107,1.061-0.323,1.484
		c-0.215,0.424-0.52,0.753-0.912,0.989C160.349,170.872,159.885,170.99,159.349,170.99z M159.355,169.955
		c0.292,0,0.533-0.08,0.729-0.241c0.194-0.16,0.34-0.376,0.437-0.648c0.097-0.271,0.145-0.573,0.145-0.906
		c0-0.336-0.048-0.64-0.145-0.912s-0.242-0.49-0.437-0.651c-0.196-0.162-0.438-0.243-0.729-0.243c-0.297,0-0.544,0.081-0.739,0.243
		c-0.197,0.161-0.344,0.379-0.44,0.651c-0.096,0.272-0.145,0.576-0.145,0.912c0,0.333,0.049,0.635,0.145,0.906
		c0.097,0.272,0.243,0.488,0.44,0.648C158.812,169.875,159.059,169.955,159.355,169.955z"/>
	<path style="fill:#99C72F;" d="M164.36,167.67v3.213h-1.292v-5.483h1.234v0.932h0.064c0.127-0.307,0.328-0.551,0.605-0.731
		s0.62-0.271,1.03-0.271c0.378,0,0.708,0.081,0.99,0.243c0.282,0.161,0.501,0.396,0.657,0.703c0.155,0.307,0.232,0.68,0.229,1.117
		v3.491h-1.292v-3.291c0-0.367-0.094-0.654-0.284-0.861c-0.188-0.206-0.449-0.31-0.783-0.31c-0.226,0-0.427,0.049-0.602,0.147
		c-0.174,0.1-0.312,0.241-0.41,0.427C164.409,167.181,164.36,167.405,164.36,167.67z"/>
	<path style="fill:#99C72F;" d="M170.49,167.67v3.213h-1.293v-5.483h1.235v0.932h0.064c0.126-0.307,0.328-0.551,0.605-0.731
		s0.62-0.271,1.03-0.271c0.378,0,0.708,0.081,0.989,0.243c0.282,0.161,0.501,0.396,0.658,0.703c0.155,0.307,0.231,0.68,0.229,1.117
		v3.491h-1.292v-3.291c0-0.367-0.095-0.654-0.284-0.861c-0.188-0.206-0.449-0.31-0.783-0.31c-0.226,0-0.427,0.049-0.602,0.147
		c-0.175,0.1-0.312,0.241-0.41,0.427C170.539,167.181,170.49,167.405,170.49,167.67z"/>
	<path style="fill:#99C72F;" d="M177.754,170.99c-0.55,0-1.023-0.115-1.423-0.345c-0.398-0.229-0.704-0.556-0.918-0.979
		c-0.215-0.422-0.321-0.92-0.321-1.493c0-0.564,0.107-1.061,0.322-1.487c0.216-0.428,0.517-0.761,0.905-1
		c0.388-0.238,0.844-0.358,1.366-0.358c0.339,0,0.658,0.055,0.959,0.163c0.302,0.108,0.567,0.274,0.8,0.501
		c0.231,0.226,0.414,0.514,0.548,0.862s0.2,0.763,0.2,1.244v0.396h-4.494v-0.87h3.255c-0.002-0.247-0.056-0.469-0.161-0.663
		c-0.104-0.193-0.25-0.347-0.437-0.458c-0.187-0.112-0.403-0.168-0.651-0.168c-0.265,0-0.496,0.063-0.696,0.191
		c-0.199,0.127-0.355,0.293-0.466,0.499c-0.11,0.207-0.167,0.432-0.169,0.677v0.76c0,0.319,0.058,0.593,0.174,0.819
		c0.117,0.228,0.28,0.401,0.489,0.522c0.21,0.119,0.455,0.18,0.736,0.18c0.188,0,0.357-0.027,0.51-0.081
		c0.152-0.053,0.284-0.132,0.396-0.236c0.111-0.105,0.196-0.235,0.253-0.39l1.207,0.136c-0.076,0.319-0.221,0.597-0.434,0.833
		c-0.213,0.237-0.485,0.421-0.816,0.55C178.559,170.925,178.18,170.99,177.754,170.99z"/>
	<path style="fill:#99C72F;" d="M183.676,170.99c-0.547,0-1.016-0.12-1.407-0.36c-0.392-0.241-0.693-0.573-0.903-0.998
		s-0.315-0.915-0.315-1.469c0-0.558,0.106-1.05,0.321-1.477c0.214-0.428,0.517-0.761,0.907-1c0.392-0.238,0.855-0.358,1.391-0.358
		c0.445,0,0.84,0.081,1.184,0.244c0.344,0.164,0.618,0.394,0.822,0.689c0.205,0.297,0.321,0.642,0.351,1.036h-1.234
		c-0.051-0.264-0.169-0.483-0.355-0.661c-0.188-0.178-0.438-0.267-0.748-0.267c-0.265,0-0.496,0.071-0.696,0.213
		c-0.199,0.142-0.355,0.345-0.466,0.608c-0.11,0.265-0.167,0.581-0.167,0.95c0,0.374,0.056,0.694,0.165,0.962
		s0.263,0.473,0.462,0.617c0.199,0.144,0.433,0.216,0.702,0.216c0.19,0,0.361-0.036,0.512-0.109
		c0.151-0.072,0.278-0.178,0.381-0.315s0.173-0.306,0.211-0.504h1.234c-0.031,0.389-0.146,0.732-0.343,1.03
		c-0.197,0.3-0.466,0.532-0.807,0.7S184.136,170.99,183.676,170.99z"/>
	<path style="fill:#99C72F;" d="M189.827,165.399v1h-3.152v-1H189.827z M187.453,164.086h1.293v5.147
		c0,0.174,0.026,0.307,0.08,0.398c0.053,0.091,0.124,0.153,0.212,0.188c0.088,0.033,0.186,0.049,0.293,0.049
		c0.081,0,0.155-0.006,0.223-0.017c0.068-0.012,0.12-0.023,0.156-0.032l0.218,1.01c-0.069,0.023-0.168,0.05-0.296,0.079
		c-0.126,0.027-0.282,0.045-0.466,0.05c-0.323,0.009-0.614-0.04-0.874-0.148c-0.259-0.108-0.464-0.276-0.615-0.505
		c-0.151-0.229-0.226-0.515-0.224-0.856V164.086z"/>
	<path style="fill:#99C72F;" d="M193.243,170.99c-0.535,0-0.999-0.118-1.392-0.354c-0.393-0.236-0.697-0.565-0.913-0.989
		c-0.215-0.424-0.322-0.918-0.322-1.484s0.107-1.063,0.322-1.489c0.216-0.426,0.521-0.756,0.913-0.992s0.856-0.354,1.392-0.354
		c0.536,0,1,0.117,1.393,0.354s0.696,0.566,0.911,0.992c0.216,0.427,0.323,0.923,0.323,1.489s-0.107,1.061-0.323,1.484
		c-0.215,0.424-0.519,0.753-0.911,0.989C194.243,170.872,193.779,170.99,193.243,170.99z M193.25,169.955
		c0.291,0,0.533-0.08,0.729-0.241c0.195-0.16,0.341-0.376,0.437-0.648c0.097-0.271,0.146-0.573,0.146-0.906
		c0-0.336-0.049-0.64-0.146-0.912c-0.096-0.272-0.241-0.49-0.437-0.651c-0.195-0.162-0.438-0.243-0.729-0.243
		c-0.298,0-0.544,0.081-0.74,0.243c-0.196,0.161-0.344,0.379-0.439,0.651c-0.097,0.272-0.145,0.576-0.145,0.912
		c0,0.333,0.048,0.635,0.145,0.906c0.096,0.272,0.243,0.488,0.439,0.648C192.706,169.875,192.952,169.955,193.25,169.955z"/>
	<path style="fill:#99C72F;" d="M196.963,170.883v-5.483h1.253v0.914h0.058c0.1-0.316,0.271-0.562,0.516-0.733
		c0.244-0.173,0.523-0.259,0.838-0.259c0.071,0,0.151,0.003,0.24,0.009s0.163,0.016,0.224,0.026v1.188
		c-0.056-0.019-0.142-0.036-0.26-0.051c-0.117-0.017-0.231-0.023-0.341-0.023c-0.235,0-0.447,0.051-0.634,0.151
		c-0.187,0.102-0.333,0.241-0.44,0.419c-0.106,0.179-0.161,0.385-0.161,0.619v3.223H196.963z"/>
	<path style="fill:#99C72F;" d="M203.32,163.572h1.313v5.14c-0.002,0.472-0.103,0.877-0.299,1.216
		c-0.198,0.34-0.475,0.6-0.827,0.782c-0.354,0.182-0.765,0.273-1.233,0.273c-0.428,0-0.813-0.077-1.155-0.231
		c-0.341-0.153-0.612-0.381-0.812-0.684c-0.2-0.302-0.3-0.678-0.3-1.128h1.316c0.003,0.198,0.046,0.368,0.131,0.511
		c0.084,0.144,0.201,0.253,0.352,0.328c0.15,0.076,0.323,0.114,0.518,0.114c0.212,0,0.392-0.044,0.539-0.134
		c0.147-0.089,0.261-0.222,0.338-0.398c0.077-0.176,0.116-0.393,0.119-0.649V163.572z"/>
	<path style="fill:#99C72F;" d="M210.046,165.581c-0.033-0.311-0.173-0.554-0.42-0.728c-0.246-0.174-0.565-0.26-0.958-0.26
		c-0.276,0-0.513,0.041-0.711,0.124c-0.196,0.083-0.349,0.197-0.453,0.34c-0.104,0.143-0.158,0.305-0.16,0.488
		c0,0.153,0.035,0.284,0.105,0.396c0.07,0.113,0.166,0.207,0.287,0.284s0.256,0.143,0.403,0.195
		c0.147,0.052,0.297,0.096,0.446,0.131l0.686,0.172c0.276,0.064,0.542,0.152,0.797,0.262c0.257,0.109,0.486,0.247,0.69,0.413
		c0.202,0.167,0.364,0.368,0.482,0.604c0.12,0.236,0.179,0.511,0.179,0.828c0,0.428-0.109,0.805-0.328,1.13
		c-0.219,0.324-0.535,0.578-0.948,0.76c-0.412,0.183-0.911,0.273-1.497,0.273c-0.568,0-1.062-0.088-1.479-0.264
		s-0.744-0.434-0.978-0.771c-0.235-0.337-0.362-0.749-0.381-1.235h1.303c0.02,0.255,0.098,0.467,0.235,0.636
		c0.139,0.169,0.318,0.295,0.541,0.379c0.223,0.083,0.472,0.124,0.748,0.124c0.288,0,0.541-0.043,0.758-0.13
		c0.219-0.087,0.389-0.208,0.514-0.364c0.123-0.155,0.187-0.338,0.188-0.548c-0.002-0.19-0.059-0.349-0.168-0.473
		c-0.109-0.125-0.262-0.23-0.458-0.314s-0.426-0.159-0.688-0.227l-0.832-0.214c-0.602-0.155-1.077-0.39-1.426-0.705
		s-0.523-0.735-0.523-1.258c0-0.432,0.118-0.809,0.352-1.132c0.235-0.324,0.555-0.575,0.959-0.755s0.862-0.271,1.375-0.271
		c0.518,0,0.974,0.091,1.365,0.271c0.391,0.18,0.698,0.428,0.923,0.746c0.223,0.316,0.338,0.682,0.345,1.093H210.046z"/>
	<path style="fill:#99C72F;" d="M213.047,170.922c-0.065,0-0.122-0.023-0.168-0.068c-0.046-0.046-0.069-0.103-0.069-0.168
		s0.023-0.121,0.069-0.167c0.046-0.047,0.103-0.069,0.168-0.069c0.066,0,0.121,0.022,0.168,0.069
		c0.046,0.046,0.069,0.102,0.069,0.167c0,0.044-0.012,0.084-0.031,0.12c-0.021,0.036-0.05,0.064-0.086,0.085
		C213.131,170.912,213.091,170.922,213.047,170.922z"/>
	<path style="fill:#99C72F;" d="M216.925,170.988c-0.408,0-0.771-0.114-1.09-0.344c-0.319-0.229-0.569-0.541-0.753-0.935
		c-0.183-0.395-0.274-0.841-0.274-1.337c0-0.493,0.092-0.938,0.273-1.333c0.182-0.396,0.432-0.709,0.751-0.938
		c0.318-0.23,0.683-0.345,1.093-0.345c0.302,0,0.579,0.064,0.832,0.195c0.253,0.13,0.465,0.312,0.637,0.546
		c0.171,0.232,0.281,0.503,0.331,0.81h-0.223c-0.068-0.396-0.248-0.72-0.541-0.968s-0.638-0.373-1.036-0.373
		c-0.362,0-0.688,0.104-0.976,0.314c-0.288,0.209-0.515,0.495-0.682,0.857s-0.249,0.773-0.249,1.234c0,0.446,0.08,0.851,0.241,1.216
		c0.16,0.363,0.386,0.652,0.672,0.867c0.287,0.214,0.618,0.321,0.993,0.321c0.269,0,0.517-0.057,0.741-0.169
		c0.227-0.113,0.414-0.271,0.564-0.478c0.149-0.207,0.244-0.446,0.284-0.72h0.223c-0.048,0.317-0.157,0.594-0.328,0.831
		c-0.171,0.236-0.385,0.42-0.641,0.55C217.513,170.923,217.23,170.988,216.925,170.988z"/>
	<path style="fill:#99C72F;" d="M222.011,170.988c-0.396,0-0.753-0.114-1.068-0.344c-0.315-0.229-0.564-0.541-0.748-0.937
		c-0.183-0.396-0.273-0.841-0.273-1.335c0-0.498,0.091-0.944,0.273-1.338c0.184-0.395,0.433-0.706,0.748-0.935
		c0.315-0.229,0.672-0.344,1.068-0.344c0.396,0,0.751,0.114,1.066,0.345c0.314,0.229,0.563,0.542,0.747,0.937
		s0.276,0.84,0.276,1.335c0,0.494-0.092,0.939-0.274,1.335s-0.433,0.708-0.748,0.937
		C222.763,170.874,222.406,170.988,222.011,170.988z M222.011,170.777c0.356,0,0.677-0.104,0.961-0.315
		c0.283-0.21,0.507-0.497,0.672-0.86c0.165-0.364,0.247-0.774,0.247-1.229c0-0.456-0.083-0.866-0.249-1.229
		c-0.165-0.362-0.389-0.649-0.672-0.86c-0.282-0.212-0.603-0.317-0.959-0.317c-0.355,0-0.675,0.105-0.958,0.317
		c-0.284,0.211-0.509,0.498-0.674,0.86s-0.247,0.772-0.247,1.229c0,0.454,0.081,0.864,0.245,1.229
		c0.165,0.363,0.389,0.65,0.672,0.86C221.333,170.673,221.653,170.777,222.011,170.777z"/>
	<path style="fill:#99C72F;" d="M225.585,170.883v-5.048h0.211v0.749h0.026c0.092-0.244,0.257-0.441,0.494-0.591
		c0.238-0.148,0.524-0.223,0.859-0.223c0.382,0,0.686,0.093,0.912,0.281c0.227,0.189,0.383,0.441,0.469,0.757h0.025
		c0.084-0.315,0.252-0.567,0.507-0.757c0.254-0.188,0.571-0.281,0.952-0.281c0.506,0,0.881,0.159,1.123,0.48
		s0.362,0.735,0.362,1.241v3.391h-0.21v-3.391c0-0.448-0.102-0.812-0.302-1.092c-0.202-0.28-0.526-0.421-0.974-0.421
		c-0.446,0-0.788,0.142-1.024,0.426c-0.237,0.283-0.355,0.646-0.355,1.087v3.391h-0.21v-3.391c0-0.448-0.101-0.812-0.303-1.092
		c-0.201-0.28-0.525-0.421-0.973-0.421c-0.298,0-0.549,0.064-0.754,0.194c-0.205,0.129-0.36,0.309-0.467,0.536
		c-0.105,0.228-0.159,0.488-0.159,0.782v3.391H225.585z"/>
</g>
</svg>
