<?xml version="1.0" encoding="utf-8"?>
<!-- Generator: Adobe Illustrator 16.0.2, SVG Export Plug-In . SVG Version: 6.00 Build 0)  -->
<!DOCTYPE svg PUBLIC "-//W3C//DTD SVG 1.1//EN" "http://www.w3.org/Graphics/SVG/1.1/DTD/svg11.dtd">
<svg version="1.1" id="Layer_1" xmlns="http://www.w3.org/2000/svg" xmlns:xlink="http://www.w3.org/1999/xlink" x="0px" y="0px"
	 width="482.53px" height="218.666px" viewBox="23.426 507.526 482.53 218.666"
	 style="enable-background:new 23.426 507.526 482.53 218.666;" xml:space="preserve">
<g>
	<g>
		<rect x="8.5" y="500.462" style="display:none;fill:#0D0933;" width="512" height="163.597"/>
		<g>
			<g>
				<path style="fill:none;" d="M491.833,604.197v2.688c-0.443-0.298-0.893-0.59-1.414-0.741
					C490.795,605.404,491.243,604.669,491.833,604.197z"/>
			</g>
			<g>
				<path style="fill:none;" d="M386.531,580.911c-3.703,0-7.289,0.46-10.852,1.425l3.871-37.057h43.908v3.86
					c-2.391,0-4.32,1.931-4.32,4.31v15.796c0,2.368,1.93,4.304,4.32,4.304c2.368,0,4.304-1.936,4.304-4.304v-15.796
					c0-1.476-0.746-2.816-1.936-3.636v-4.534h2.979l4.691,44.503h-17.782c0-11.542-12.064-3.35-18.467-12.58
					c-4.904-6.964,2.379-18.305-10.566-18.305v22.014H386.531z"/>
			</g>
			<g>
				<path style="fill:none;" d="M468.613,631.604c0,0.14,0,0.291,0,0.426c0,6.42,5.285,11.756,11.756,11.756
					c6.475,0,11.683-5.336,11.683-11.756c0.078-6.531-5.056-11.756-11.531-11.901C474.051,619.987,468.691,625.189,468.613,631.604z
					 M475.936,631.884c0-2.671,2.082-4.753,4.68-4.753c2.548,0,4.691,2.082,4.691,4.753c0,2.542-2.144,4.618-4.691,4.618
					C478.018,636.502,475.936,634.426,475.936,631.884z"/>
			</g>
			<g>
				<path style="fill:none;" d="M370.461,622.815c0.006,8.922,7.289,16.076,16.222,16.217c8.939,0,16.363-7.295,16.363-16.374
					c0-9.073-7.424-16.379-16.363-16.379C377.604,606.296,370.314,613.742,370.461,622.815z M379.518,622.507
					c0-3.866,3.131-6.991,7.126-6.991c3.872,0,6.997,3.125,6.997,6.991c0,3.878-3.125,7.003-6.997,7.003
					C382.648,629.51,379.518,626.385,379.518,622.507z"/>
			</g>
			<g>
				<path style="fill:none;" d="M430.147,613.894l10.937-15.93h50.743v0.589c-2.671,1.189-4.759,3.429-5.875,6.1
					c-5.881-1.33-12.054-0.449-17.855,2.385c-8.266,4.028-13.618,11.744-14.724,20.694h-36.766c0.292-1.645,0.443-3.288,0.443-5.073
					c0-2.974-0.443-5.937-1.2-8.765H430.147z"/>
			</g>
			<g>
				<path style="fill:none;" d="M373.435,541.183c-0.129-0.146-0.146-0.297-0.146-0.6v-5c0-0.303,0.017-0.499,0.146-0.65
					c0,0,0.151,0,0.298,0h60.5c0.079,0,0.157,0,0.304,0c0,0.151,0.067,0.348,0.067,0.65v5c0,0.196-0.067,0.376-0.067,0.6
					c-0.146,0-0.225,0-0.304,0h-60.5C373.586,541.183,373.435,541.183,373.435,541.183z"/>
			</g>
			<g>
				<path style="fill:none;" d="M386.526,584.648c14.6,0,26.799,7.664,32.893,20.756l-5.493,2.963
					c-5.662-10.864-16.076-17.553-27.399-17.553c-11.15,0-21.424,6.408-27.231,16.969l-5.359-2.525
					C360.192,592.308,372.251,584.648,386.526,584.648z"/>
			</g>
			<g>
				<path style="fill:none;" d="M496.742,597.369c-0.376,0-0.813,0.134-1.189,0.146v-1.498h1.189V597.369z"/>
			</g>
			<g>
				<path style="fill:none;" d="M437.734,575.328l50.523,7.598c1.195,1.789,3.053,5.902,4.54,9.235h-55.063V575.328z"/>
			</g>
			<g>
				<path style="fill:none;" d="M234.186,611.088c1.992,0,3.603,1.61,3.603,3.592c0,1.98-1.61,3.597-3.603,3.597
					c-1.98,0-3.591-1.616-3.591-3.597C230.595,612.698,232.205,611.088,234.186,611.088z"/>
			</g>
			<g>
				<path style="fill:none;" d="M310.981,610.65v8.024h-7.446c-0.146,0.011-0.27,0.073-0.415,0.09v-8.204
					c0.146,0.022,0.27,0.09,0.415,0.09H310.981z"/>
			</g>
			<g>
				<path style="fill:none;" d="M29.801,601.291c2.576-1.947,4.383-5.897,5.404-8.63c0.471-1.269,2.154-1.7,3.107-0.741
					c0.596,0.59,1.521,0.68,2.217,0.219l6.902-4.606c0.842-0.55,1.964-0.443,2.682,0.27c0.982,0.987,0.77,2.659-0.336,3.513
					c-1.555,1.195-3.469,2.951-4.08,4.809c-1.997,5.976,1.027,8.955,3.535,11.441c1.498,1.481,2.828,2.794,2.828,4.461
					c0,6.363,7.951,28.629,19.084,28.629c11.627,0,11.105-6.616,10.566-13.507c-0.337-4.427-0.696-8.978,2.166-11.935
					c2.346-2.464,5.364-3.204,8.287-3.939c5.533-1.369,10.791-2.688,10.791-15.15c0-8.781-8.266-15.914-15.896-15.914
					c-11.133,0-14.478,1.038-17.653,2.026l-0.067,0.022c-2.666,0.824-5.6-0.494-6.582-3.098c-1.027-2.705-0.572-4.512,4.416-5.101
					c0.527-0.062,1.049-0.168,1.549-0.348l6.256-2.161c1.617-0.561,3.396-0.448,4.928,0.314l1.66,0.836
					c1.453,0.719,3.16,0.719,4.613,0c2.322-1.161,5.134-0.409,6.576,1.745l1.56,2.346c1.453,2.217,4.304,3.036,6.717,1.937
					c2.71-1.224,3.922-4.416,2.693-7.121l-1.835-4.113c10.718,8.439,16.975,21.334,16.975,34.976
					c0,24.6-19.938,44.542-44.531,44.542c-24.594,0.006-44.537-19.937-44.537-44.537L29.801,601.291z"/>
			</g>
			<g>
				<path style="fill:none;" d="M237.468,585.652h16.229c6.368-0.006,11.946-3.962,13.663-9.685
					c2.133-7.06-2.284-14.388-9.831-16.368c-1.184-7.722-6.503-14.343-14.101-17.553c-12.261-5.173-26.693-0.072-32.209,11.38
					c-7.828,2.031-13.147,8.782-12.884,16.362c0.314,9.063,8.456,16.166,18.147,15.863h12.86l2.031,0.017
					c2.515,0,0.887-0.05,3.406-0.05l1.835,0.05L237.468,585.652z M243.602,583.032h-18.366c-1.296,0-2.379-0.449-3.266-1.324
					c-0.881-0.876-1.318-1.964-1.318-3.266v-13.771c0-1.291,0.438-2.385,1.318-3.271c0.887-0.87,1.97-1.313,3.266-1.313v-4.13
					c0-2.677,0.881-4.944,2.644-6.818c1.762-1.874,3.938-2.822,6.548-2.822c2.514,0,4.68,0.903,6.47,2.693
					c1.796,1.802,2.705,3.973,2.705,6.486v4.591c1.29,0,2.391,0.442,3.266,1.313c0.875,0.887,1.318,1.98,1.318,3.271v13.771
					c0,1.302-0.443,2.39-1.318,3.266C245.992,582.583,244.892,583.032,243.602,583.032z"/>
			</g>
			<g>
				<path style="fill:none;" d="M164.932,610.673v8.024h-7.436c-0.157,0-0.28,0.067-0.421,0.084v-8.204
					c0.141,0.022,0.264,0.09,0.421,0.096H164.932z"/>
			</g>
			<g>
				<path style="fill:none;" d="M234.427,568.123c0.987,0,1.807,0.314,2.446,0.971c0.657,0.656,0.988,1.481,0.988,2.475
					c0,0.981-0.331,1.807-0.988,2.452c-0.64,0.656-1.459,0.977-2.446,0.977c-0.993,0-1.829-0.32-2.48-0.977
					c-0.65-0.646-0.965-1.471-0.965-2.452c0-0.993,0.314-1.818,0.965-2.475C232.598,568.438,233.434,568.123,234.427,568.123z"/>
			</g>
			<g>
				<path style="fill:none;" d="M234.427,550.907c1.296,0,2.379,0.443,3.255,1.324c0.892,0.881,1.324,1.964,1.324,3.266v4.591
					h-9.181v-4.591c0-1.302,0.438-2.385,1.319-3.266C232.036,551.351,233.119,550.907,234.427,550.907z"/>
			</g>
			<g>
				<path style="fill:none;" d="M206.696,549.358c-2.301,0.64-4.405,1.655-6.296,2.924c-1.734-1.027-3.153-2.374-4.248-4.091
					c-1.357-2.104-1.986-4.427-1.902-6.958c0.112-3.4,1.42-6.273,3.928-8.602c2.503-2.357,5.46-3.468,8.86-3.355
					c3.092,0.112,5.763,1.2,8.019,3.293c1.218,1.128,2.127,2.43,2.783,3.861C213.109,539.478,209.171,543.849,206.696,549.358z"/>
			</g>
			<g>
				<path style="fill:#9ACA31;" d="M386.644,615.516c3.872,0,6.997,3.125,6.997,6.991c0,3.878-3.125,7.003-6.997,7.003
					c-3.995,0-7.126-3.125-7.126-7.003C379.518,618.641,382.648,615.516,386.644,615.516z"/>
			</g>
			<g>
				<path style="fill:#9ACA31;" d="M480.615,627.131c2.548,0,4.691,2.082,4.691,4.753c0,2.542-2.144,4.618-4.691,4.618
					c-2.598,0-4.68-2.076-4.68-4.618C475.936,629.213,478.018,627.131,480.615,627.131z"/>
			</g>
			<g>
				<path style="fill:#9ACA31;" d="M23.426,602.475c0,28.113,22.793,50.9,50.9,50.9c22.597,0,41.736-14.741,48.381-35.115h7.884
					c1.61,6.879,7.754,11.755,14.808,11.755h5.409l0.006-0.005c2.783,0.005,5.112-1.818,5.926-4.321
					c0.252,0.057,0.482,0.157,0.757,0.163h7.436v1.481c0,1.487,1.2,2.677,2.682,2.682h8.984c7.064,0,13.197-4.876,14.813-11.755
					h9.096c0.039,0,0.078,0,0.123,0c0.196,0,0.365-0.09,0.55-0.118c0.22,0.039,0.427,0.135,0.657,0.135h22.203
					c1.101,3.002,3.463,5.364,6.47,6.458c5.601,2.032,11.778-0.858,13.815-6.458h22.221c0.208,0,0.387-0.09,0.589-0.129
					c0.141,0.022,0.259,0.09,0.41,0.095h9.096c1.604,6.886,7.743,11.762,14.808,11.762h5.409l0.006-0.006
					c2.772,0.006,5.106-1.823,5.926-4.332c0.252,0.067,0.482,0.163,0.746,0.169h7.446v1.481c0,1.486,1.201,2.682,2.683,2.688h8.978
					c7.07,0,13.209-4.876,14.819-11.762h9.096c0.022,0,5.359,0.034,9.955,0.063c-0.197,1.414-0.337,2.855-0.337,4.354
					c0,16.823,13.686,30.503,30.508,30.503c13.692,0,25.302-9.079,29.033-21.569h37.422c0,0.438,0,0.893,0.078,1.341h6.094
					c0.454,11.172,9.68,20.229,21.06,20.229c11.615,0,21.059-9.511,21.059-21.132c0-5.942-2.452-11.587-6.846-15.604h6.846v-7.306
					h-5.65c-0.079,0-0.079-0.006-0.151-0.012l-0.067-6.846c0.432-0.129,0.808-0.141,1.184-0.141v2.094h4.686v-35.133h-4.686v22.776
					c-1.268-3.114-4.23-9.674-6.021-11.828l-0.449-0.533l-52.757-8.03l-3.496-26.49h0.213c1.857,0,4.097-0.813,4.097-4.394v-5
					c0-3.631-2.239-4.377-4.097-4.377h-60.5c-1.925,0-4.158,0.746-4.158,4.377v5c0,3.58,2.233,4.394,4.158,4.394h0.601
					l-5.208,39.885c-8.484,4.13-15.335,11.307-19.358,20.678l-0.729,1.644l8.468,3.962l-20.044-0.057
					c-1.61-6.885-7.749-11.755-14.813-11.755h-8.983c-1.481,0-2.683,1.2-2.683,2.682v1.481h-7.446c-0.264,0-0.499,0.106-0.752,0.163
					c-0.813-2.503-3.147-4.326-5.926-4.326h-5.409c-7.064,0-13.203,4.87-14.808,11.755h-9.096c-0.169,0.006-0.314,0.079-0.482,0.107
					c-0.175-0.034-0.332-0.107-0.517-0.107h-22.221c-1.089-3.058-3.484-5.459-6.537-6.542v-8.182l0.006-3.989l21.559-0.259
					c7.889-0.011,14.802-5.263,16.929-12.85c2.632-9.365-2.839-19.084-12.193-21.71c-1.453-10.252-8.047-19.033-17.474-23.292
					c-7.575-3.412-15.807-3.451-23.017-0.746c-1.021-2.121-2.43-4.029-4.321-5.679c-3.429-3.008-7.446-4.585-12.024-4.742
					c-5.163-0.174-9.612,1.481-13.333,4.966c-3.726,3.485-5.679,7.812-5.853,12.974c-0.129,3.962,0.881,7.575,3.042,10.813
					c1.257,1.907,2.811,3.456,4.595,4.747c-3.254,3.978-5.146,9.039-4.966,14.46c0.398,12.024,10.477,21.452,22.49,21.059
					l17.4-0.017l-0.033,4.265v8.182c-3.059,1.083-5.454,3.484-6.555,6.542h-22.203c-0.247,0-0.455,0.085-0.69,0.141
					c-0.213-0.045-0.409-0.129-0.64-0.123l-9.096-0.006c-1.616-6.88-7.749-11.75-14.813-11.75h-8.984
					c-1.481,0-2.682,1.201-2.682,2.677v1.486h-7.436c-0.274,0.006-0.505,0.102-0.763,0.163c-0.813-2.503-3.143-4.326-5.926-4.326
					h-5.409c-7.059,0-13.203,4.87-14.808,11.756h-6.15c0.488-2.812,0.785-5.685,0.785-8.631c0-28.106-22.793-50.894-50.899-50.894
					C46.219,551.581,23.426,574.368,23.426,602.475z M495.553,596.017h1.189v1.353c-0.376,0-0.813,0.134-1.189,0.146V596.017z
					 M373.732,541.183c-0.146,0-0.298,0-0.298,0c-0.129-0.146-0.146-0.297-0.146-0.6v-5c0-0.303,0.017-0.499,0.146-0.65
					c0,0,0.151,0,0.298,0h60.5c0.079,0,0.157,0,0.304,0c0,0.151,0.067,0.348,0.067,0.65v5c0,0.196-0.067,0.376-0.067,0.6
					c-0.146,0-0.225,0-0.304,0H373.732z M386.683,558.897v22.014h-0.151c-3.703,0-7.289,0.46-10.852,1.425l3.871-37.057h43.908v3.86
					c-2.391,0-4.32,1.931-4.32,4.31v15.796c0,2.368,1.93,4.304,4.32,4.304c2.368,0,4.304-1.936,4.304-4.304v-15.796
					c0-1.476-0.746-2.816-1.936-3.636v-4.534h2.979l4.691,44.503h-17.782c0-11.542-12.064-3.35-18.467-12.58
					C392.345,570.238,399.628,558.897,386.683,558.897z M492.798,592.161h-55.063v-16.833l50.523,7.598
					C489.453,584.715,491.311,588.828,492.798,592.161z M491.833,606.886c-0.443-0.298-0.893-0.59-1.414-0.741
					c0.376-0.74,0.824-1.476,1.414-1.947V606.886z M468.613,631.604c0.078-6.414,5.438-11.616,11.907-11.476
					c6.476,0.146,11.609,5.37,11.531,11.901c0,6.42-5.208,11.756-11.683,11.756c-6.471,0-11.756-5.336-11.756-11.756
					C468.613,631.895,468.613,631.743,468.613,631.604z M417.051,622.658c0-2.974-0.443-5.937-1.2-8.765h14.297l10.937-15.93h50.743
					v0.589c-2.671,1.189-4.759,3.429-5.875,6.1c-5.881-1.33-12.054-0.449-17.855,2.385c-8.266,4.028-13.618,11.744-14.724,20.694
					h-36.766C416.899,626.087,417.051,624.443,417.051,622.658z M370.461,622.815c-0.146-9.073,7.143-16.52,16.222-16.536
					c8.939,0,16.363,7.306,16.363,16.379c0,9.079-7.424,16.374-16.363,16.374C377.75,638.892,370.467,631.737,370.461,622.815z
					 M359.295,607.783l-5.359-2.525c6.257-12.95,18.315-20.609,32.591-20.609c14.6,0,26.799,7.664,32.893,20.756l-5.493,2.963
					c-5.662-10.864-16.076-17.553-27.399-17.553C375.376,590.814,365.103,597.223,359.295,607.783z M303.12,610.561
					c0.146,0.022,0.27,0.09,0.415,0.09h7.446v8.024h-7.446c-0.146,0.011-0.27,0.073-0.415,0.09V610.561z M217.84,536.431
					c-4.73,3.047-8.669,7.418-11.144,12.928c-2.301,0.64-4.405,1.655-6.296,2.924c-1.734-1.027-3.153-2.374-4.248-4.091
					c-1.357-2.104-1.986-4.427-1.902-6.958c0.112-3.4,1.42-6.273,3.928-8.602c2.503-2.357,5.46-3.468,8.86-3.355
					c3.092,0.112,5.763,1.2,8.019,3.293C216.274,533.697,217.184,534.999,217.84,536.431z M237.468,585.652l-0.853,0.017
					l-1.835-0.05c-2.52,0-0.892,0.05-3.406,0.05l-2.031-0.017h-12.86c-9.691,0.303-17.833-6.801-18.147-15.863
					c-0.264-7.58,5.056-14.331,12.884-16.362c5.516-11.452,19.948-16.553,32.209-11.38c7.598,3.21,12.917,9.831,14.101,17.553
					c7.547,1.98,11.964,9.309,9.831,16.368c-1.717,5.723-7.295,9.679-13.663,9.685H237.468z M230.595,614.68
					c0-1.981,1.61-3.592,3.591-3.592c1.992,0,3.603,1.61,3.603,3.592c0,1.98-1.61,3.597-3.603,3.597
					C232.205,618.276,230.595,616.66,230.595,614.68z M157.075,610.577c0.141,0.022,0.264,0.09,0.421,0.096h7.436v8.024h-7.436
					c-0.157,0-0.28,0.067-0.421,0.084V610.577z M29.795,602.475l0.006-1.184c2.576-1.947,4.383-5.897,5.404-8.63
					c0.471-1.269,2.154-1.7,3.107-0.741c0.596,0.59,1.521,0.68,2.217,0.219l6.902-4.606c0.842-0.55,1.964-0.443,2.682,0.27
					c0.982,0.987,0.77,2.659-0.336,3.513c-1.555,1.195-3.469,2.951-4.08,4.809c-1.997,5.976,1.027,8.955,3.535,11.441
					c1.498,1.481,2.828,2.794,2.828,4.461c0,6.363,7.951,28.629,19.084,28.629c11.627,0,11.105-6.616,10.566-13.507
					c-0.337-4.427-0.696-8.978,2.166-11.935c2.346-2.464,5.364-3.204,8.287-3.939c5.533-1.369,10.791-2.688,10.791-15.15
					c0-8.781-8.266-15.914-15.896-15.914c-11.133,0-14.478,1.038-17.653,2.026l-0.067,0.022c-2.666,0.824-5.6-0.494-6.582-3.098
					c-1.027-2.705-0.572-4.512,4.416-5.101c0.527-0.062,1.049-0.168,1.549-0.348l6.256-2.161c1.617-0.561,3.396-0.448,4.928,0.314
					l1.66,0.836c1.453,0.719,3.16,0.719,4.613,0c2.322-1.161,5.134-0.409,6.576,1.745l1.56,2.346
					c1.453,2.217,4.304,3.036,6.717,1.937c2.71-1.224,3.922-4.416,2.693-7.121l-1.835-4.113
					c10.718,8.439,16.975,21.334,16.975,34.976c0,24.6-19.938,44.542-44.531,44.542C49.738,647.018,29.795,627.075,29.795,602.475z"
					/>
			</g>
			<g>
				<path style="fill:#9ACA31;" d="M225.235,583.032h18.366c1.29,0,2.391-0.449,3.266-1.324c0.875-0.876,1.318-1.964,1.318-3.266
					v-13.771c0-1.291-0.443-2.385-1.318-3.271c-0.875-0.87-1.976-1.313-3.266-1.313v-4.591c0-2.514-0.909-4.685-2.705-6.486
					c-1.79-1.79-3.956-2.693-6.47-2.693c-2.609,0-4.786,0.948-6.548,2.822c-1.763,1.874-2.644,4.142-2.644,6.818v4.13
					c-1.296,0-2.379,0.442-3.266,1.313c-0.881,0.887-1.318,1.98-1.318,3.271v13.771c0,1.302,0.438,2.39,1.318,3.266
					C222.856,582.583,223.939,583.032,225.235,583.032z M230.981,571.568c0-0.993,0.314-1.818,0.965-2.475
					c0.651-0.656,1.487-0.971,2.48-0.971c0.987,0,1.807,0.314,2.446,0.971c0.657,0.656,0.988,1.481,0.988,2.475
					c0,0.981-0.331,1.807-0.988,2.452c-0.64,0.656-1.459,0.977-2.446,0.977c-0.993,0-1.829-0.32-2.48-0.977
					C231.296,573.375,230.981,572.55,230.981,571.568z M229.825,555.497c0-1.302,0.438-2.385,1.319-3.266
					c0.892-0.881,1.975-1.324,3.282-1.324c1.296,0,2.379,0.443,3.255,1.324c0.892,0.881,1.324,1.964,1.324,3.266v4.591h-9.181
					V555.497z"/>
			</g>
			<g>
				<polygon style="fill:#9ACA31;" points="204.261,519.905 204.67,507.526 210.859,507.734 210.444,520.102 				"/>
			</g>
			<g>
				<polygon style="fill:#9ACA31;" points="181.143,518.89 185.62,514.636 194.065,523.737 189.593,527.918 				"/>
			</g>
			<g>
				<polygon style="fill:#9ACA31;" points="184.868,544.017 172.495,543.607 172.697,537.418 185.076,537.827 				"/>
			</g>
			<g>
				<polygon style="fill:#9ACA31;" points="192.893,558.685 183.858,567.135 179.604,562.573 188.712,554.213 				"/>
			</g>
			<g>
				<polygon style="fill:#9ACA31;" points="220.359,524.624 229.31,516.095 233.574,520.646 224.54,529.097 				"/>
			</g>
		</g>
	</g>
	<g>
		<path style="fill:#99C72F;" d="M70.824,697.721h-7.676c-0.219-1.257-0.623-2.374-1.212-3.35c-0.589-0.977-1.318-1.808-2.188-2.492
			c-0.881-0.685-1.868-1.2-2.99-1.549c-1.111-0.354-2.313-0.527-3.592-0.527c-2.289,0-4.314,0.572-6.076,1.718
			c-1.768,1.139-3.143,2.811-4.142,4.999c-0.999,2.2-1.504,4.876-1.504,8.03c0,3.215,0.511,5.92,1.515,8.113
			c1.005,2.2,2.379,3.855,4.142,4.966c1.751,1.117,3.765,1.673,6.038,1.673c1.262,0,2.435-0.163,3.54-0.5
			c1.101-0.342,2.093-0.83,2.974-1.486c0.887-0.662,1.628-1.465,2.234-2.425c0.611-0.959,1.031-2.048,1.262-3.282l7.676,0.039
			c-0.291,2.004-0.908,3.872-1.857,5.623c-0.953,1.75-2.193,3.294-3.725,4.623c-1.532,1.336-3.322,2.38-5.376,3.12
			c-2.048,0.746-4.327,1.122-6.829,1.122c-3.692,0-6.986-0.858-9.881-2.569c-2.907-1.706-5.191-4.175-6.857-7.401
			c-1.666-3.232-2.503-7.099-2.503-11.615c0-4.523,0.842-8.4,2.525-11.615c1.683-3.222,3.973-5.685,6.874-7.391
			c2.895-1.717,6.178-2.569,9.842-2.569c2.334,0,4.512,0.331,6.525,0.987c2.01,0.656,3.799,1.616,5.371,2.879
			c1.576,1.268,2.867,2.811,3.889,4.64C69.843,693.305,70.505,695.387,70.824,697.721z"/>
		<path style="fill:#99C72F;" d="M91.228,726.176c-3.075,0-5.74-0.68-7.996-2.031c-2.256-1.358-4.001-3.249-5.241-5.685
			c-1.234-2.436-1.852-5.274-1.852-8.529s0.617-6.105,1.852-8.558c1.24-2.446,2.985-4.343,5.241-5.7
			c2.256-1.358,4.921-2.031,7.996-2.031c3.08,0,5.746,0.673,8.002,2.031c2.255,1.357,4.006,3.254,5.24,5.7
			c1.24,2.452,1.857,5.303,1.857,8.558s-0.617,6.094-1.857,8.529c-1.234,2.436-2.985,4.326-5.24,5.685
			C96.974,725.496,94.308,726.176,91.228,726.176z M91.267,720.228c1.678,0,3.063-0.46,4.191-1.386
			c1.117-0.921,1.953-2.161,2.509-3.727c0.556-1.56,0.83-3.294,0.83-5.207c0-1.931-0.274-3.676-0.83-5.241s-1.392-2.816-2.509-3.742
			c-1.128-0.932-2.514-1.397-4.191-1.397c-1.706,0-3.126,0.466-4.247,1.397c-1.135,0.926-1.976,2.177-2.531,3.742
			c-0.55,1.565-0.83,3.311-0.83,5.241c0,1.913,0.28,3.647,0.83,5.207c0.556,1.565,1.396,2.806,2.531,3.727
			C88.141,719.768,89.561,720.228,91.267,720.228z"/>
		<path style="fill:#99C72F;" d="M120.024,707.097v18.461h-7.424v-31.507h7.093v5.354h0.37c0.729-1.763,1.886-3.165,3.479-4.203
			s3.563-1.56,5.92-1.56c2.171,0,4.067,0.466,5.689,1.396c1.622,0.926,2.879,2.272,3.776,4.04c0.893,1.763,1.336,3.906,1.318,6.42
			v20.06h-7.424v-18.909c0-2.11-0.538-3.76-1.633-4.949c-1.083-1.185-2.581-1.779-4.5-1.779c-1.296,0-2.452,0.281-3.456,0.848
			c-0.999,0.572-1.79,1.386-2.357,2.452C120.305,704.286,120.024,705.576,120.024,707.097z"/>
		<path style="fill:#99C72F;" d="M155.246,707.097v18.461h-7.429v-31.507h7.098v5.354h0.37c0.725-1.763,1.886-3.165,3.479-4.203
			s3.563-1.56,5.92-1.56c2.172,0,4.068,0.466,5.685,1.396c1.621,0.926,2.878,2.272,3.781,4.04c0.893,1.763,1.33,3.906,1.319,6.42
			v20.06h-7.424v-18.909c0-2.11-0.545-3.76-1.633-4.949c-1.083-1.185-2.581-1.779-4.501-1.779c-1.296,0-2.452,0.281-3.456,0.848
			c-1.005,0.572-1.79,1.386-2.356,2.452C155.527,704.286,155.246,705.576,155.246,707.097z"/>
		<path style="fill:#99C72F;" d="M196.983,726.176c-3.159,0-5.881-0.662-8.176-1.981c-2.29-1.318-4.046-3.192-5.274-5.622
			c-1.235-2.424-1.847-5.286-1.847-8.58c0-3.243,0.617-6.094,1.852-8.546c1.24-2.458,2.969-4.371,5.202-5.746
			c2.228-1.369,4.848-2.059,7.85-2.059c1.947,0,3.782,0.313,5.511,0.937c1.733,0.623,3.26,1.577,4.596,2.879
			c1.33,1.296,2.379,2.951,3.147,4.954c0.769,2.004,1.15,4.383,1.15,7.149v2.272h-25.823v-5h18.703
			c-0.012-1.419-0.32-2.693-0.927-3.81c-0.6-1.111-1.437-1.992-2.508-2.632c-1.071-0.646-2.317-0.965-3.743-0.965
			c-1.521,0-2.85,0.364-4,1.1c-1.146,0.729-2.043,1.684-2.677,2.867c-0.634,1.189-0.96,2.48-0.971,3.889v4.365
			c0,1.835,0.331,3.406,0.999,4.708c0.673,1.308,1.61,2.307,2.811,3.002c1.207,0.685,2.615,1.032,4.231,1.032
			c1.077,0,2.054-0.156,2.929-0.465c0.875-0.304,1.633-0.758,2.278-1.358c0.64-0.606,1.128-1.353,1.453-2.239l6.936,0.78
			c-0.438,1.835-1.268,3.429-2.491,4.786c-1.224,1.364-2.789,2.419-4.691,3.159C201.606,725.8,199.43,726.176,196.983,726.176z"/>
		<path style="fill:#99C72F;" d="M231.01,726.176c-3.143,0-5.836-0.69-8.086-2.071c-2.25-1.386-3.984-3.294-5.19-5.734
			c-1.206-2.441-1.813-5.258-1.813-8.439c0-3.204,0.611-6.032,1.846-8.484c1.229-2.458,2.969-4.371,5.213-5.746
			c2.251-1.369,4.916-2.059,7.991-2.059c2.559,0,4.825,0.466,6.801,1.402c1.975,0.942,3.552,2.262,4.725,3.962
			c1.178,1.705,1.846,3.687,2.015,5.953h-7.093c-0.292-1.515-0.971-2.777-2.043-3.799c-1.077-1.021-2.514-1.531-4.298-1.531
			c-1.521,0-2.851,0.409-4.001,1.223c-1.145,0.813-2.043,1.98-2.677,3.496c-0.634,1.521-0.959,3.339-0.959,5.46
			c0,2.148,0.319,3.989,0.948,5.526c0.628,1.538,1.509,2.716,2.654,3.547c1.145,0.824,2.485,1.24,4.034,1.24
			c1.094,0,2.076-0.208,2.94-0.629c0.869-0.415,1.599-1.021,2.188-1.813c0.589-0.791,0.993-1.756,1.212-2.896h7.093
			c-0.18,2.233-0.837,4.209-1.97,5.92c-1.134,1.723-2.677,3.059-4.635,4.023C235.947,725.692,233.652,726.176,231.01,726.176z"/>
		<path style="fill:#99C72F;" d="M266.355,694.051v5.746h-18.113v-5.746H266.355z M252.714,686.504h7.43v29.577
			c0,0.998,0.151,1.762,0.46,2.289c0.303,0.521,0.713,0.881,1.218,1.077c0.505,0.191,1.066,0.28,1.684,0.28
			c0.466,0,0.892-0.033,1.279-0.095c0.393-0.067,0.689-0.135,0.897-0.186l1.251,5.802c-0.398,0.135-0.965,0.286-1.7,0.455
			c-0.724,0.157-1.621,0.258-2.676,0.286c-1.857,0.051-3.53-0.23-5.022-0.853c-1.487-0.623-2.665-1.589-3.535-2.901
			c-0.87-1.318-1.296-2.957-1.285-4.921V686.504z"/>
		<path style="fill:#99C72F;" d="M285.983,726.176c-3.075,0-5.74-0.68-7.996-2.031c-2.256-1.358-4.007-3.249-5.247-5.685
			c-1.234-2.436-1.852-5.274-1.852-8.529s0.617-6.105,1.852-8.558c1.24-2.446,2.991-4.343,5.247-5.7
			c2.256-1.358,4.921-2.031,7.996-2.031c3.08,0,5.746,0.673,8.002,2.031c2.255,1.357,4,3.254,5.235,5.7
			c1.239,2.452,1.856,5.303,1.856,8.558s-0.617,6.094-1.856,8.529c-1.235,2.436-2.98,4.326-5.235,5.685
			C291.729,725.496,289.063,726.176,285.983,726.176z M286.022,720.228c1.672,0,3.063-0.46,4.187-1.386
			c1.122-0.921,1.958-2.161,2.508-3.727c0.556-1.56,0.836-3.294,0.836-5.207c0-1.931-0.28-3.676-0.836-5.241
			c-0.55-1.565-1.386-2.816-2.508-3.742c-1.123-0.932-2.515-1.397-4.187-1.397c-1.711,0-3.125,0.466-4.253,1.397
			c-1.128,0.926-1.976,2.177-2.525,3.742c-0.556,1.565-0.83,3.311-0.83,5.241c0,1.913,0.274,3.647,0.83,5.207
			c0.55,1.565,1.397,2.806,2.525,3.727C282.897,719.768,284.312,720.228,286.022,720.228z"/>
		<path style="fill:#99C72F;" d="M307.356,725.558v-31.507h7.199v5.252h0.331c0.572-1.817,1.561-3.227,2.963-4.214
			c1.402-0.993,3.008-1.487,4.814-1.487c0.409,0,0.87,0.018,1.381,0.051c0.51,0.034,0.937,0.09,1.284,0.151v6.829
			c-0.319-0.106-0.813-0.208-1.492-0.292c-0.674-0.095-1.33-0.135-1.958-0.135c-1.353,0-2.57,0.292-3.643,0.87
			c-1.071,0.584-1.913,1.386-2.53,2.407c-0.611,1.026-0.926,2.211-0.926,3.558v18.517H307.356z"/>
		<path style="fill:#99C72F;" d="M343.886,683.552h7.547v29.532c-0.011,2.711-0.589,5.039-1.717,6.986
			c-1.139,1.953-2.727,3.445-4.753,4.494c-2.031,1.044-4.394,1.571-7.087,1.571c-2.457,0-4.674-0.443-6.638-1.329
			c-1.959-0.882-3.519-2.188-4.663-3.929c-1.15-1.733-1.723-3.894-1.723-6.48h7.563c0.018,1.139,0.264,2.115,0.752,2.935
			c0.483,0.825,1.156,1.453,2.021,1.886c0.864,0.438,1.857,0.656,2.974,0.656c1.218,0,2.25-0.253,3.098-0.769
			c0.848-0.511,1.498-1.274,1.941-2.29c0.443-1.01,0.668-2.256,0.685-3.731V683.552z"/>
		<path style="fill:#99C72F;" d="M382.53,695.095c-0.19-1.784-0.993-3.182-2.412-4.181c-1.414-0.999-3.249-1.492-5.505-1.492
			c-1.588,0-2.946,0.235-4.085,0.712c-1.128,0.478-2.003,1.134-2.604,1.953c-0.595,0.819-0.909,1.751-0.921,2.806
			c0,0.881,0.202,1.633,0.606,2.272c0.404,0.651,0.954,1.189,1.649,1.633c0.696,0.443,1.471,0.819,2.317,1.122
			c0.848,0.298,1.706,0.55,2.564,0.752l3.939,0.988c1.588,0.37,3.114,0.875,4.579,1.503c1.476,0.629,2.794,1.42,3.967,2.374
			c1.161,0.96,2.093,2.115,2.771,3.468c0.69,1.357,1.027,2.935,1.027,4.759c0,2.457-0.629,4.623-1.886,6.492
			c-1.257,1.862-3.074,3.321-5.448,4.365c-2.368,1.049-5.235,1.571-8.602,1.571c-3.267,0-6.1-0.505-8.502-1.516
			c-2.401-1.01-4.275-2.491-5.616-4.433c-1.353-1.936-2.082-4.304-2.188-7.099h7.485c0.112,1.465,0.561,2.683,1.353,3.653
			c0.797,0.971,1.829,1.694,3.108,2.178c1.279,0.477,2.71,0.712,4.298,0.712c1.655,0,3.109-0.247,4.354-0.746
			c1.257-0.499,2.233-1.195,2.952-2.093c0.706-0.893,1.071-1.941,1.082-3.148c-0.011-1.094-0.336-2.003-0.965-2.716
			c-0.628-0.718-1.504-1.324-2.632-1.807s-2.446-0.914-3.95-1.302l-4.78-1.229c-3.457-0.893-6.189-2.239-8.192-4.052
			c-2.004-1.813-3.008-4.226-3.008-7.228c0-2.479,0.679-4.646,2.02-6.503c1.353-1.863,3.188-3.306,5.511-4.338
			s4.954-1.554,7.9-1.554c2.974,0,5.595,0.521,7.845,1.554c2.244,1.032,4.012,2.458,5.303,4.287c1.279,1.818,1.941,3.917,1.98,6.279
			H382.53z"/>
		<path style="fill:#99C72F;" d="M399.774,725.782c-0.376,0-0.702-0.135-0.966-0.393c-0.264-0.264-0.398-0.589-0.398-0.965
			s0.135-0.696,0.398-0.96c0.264-0.27,0.59-0.398,0.966-0.398c0.381,0,0.695,0.129,0.965,0.398c0.264,0.264,0.398,0.584,0.398,0.96
			c0,0.252-0.067,0.482-0.18,0.69c-0.123,0.207-0.286,0.37-0.494,0.487C400.257,725.727,400.026,725.782,399.774,725.782z"/>
		<path style="fill:#99C72F;" d="M422.057,726.164c-2.346,0-4.434-0.656-6.263-1.976c-1.835-1.313-3.271-3.108-4.326-5.369
			c-1.049-2.268-1.576-4.832-1.576-7.683c0-2.833,0.527-5.392,1.57-7.659c1.044-2.272,2.48-4.073,4.315-5.393
			c1.829-1.324,3.922-1.98,6.279-1.98c1.733,0,3.327,0.37,4.78,1.122c1.454,0.746,2.671,1.79,3.659,3.137
			c0.981,1.336,1.615,2.89,1.902,4.652h-1.28c-0.393-2.278-1.425-4.136-3.108-5.562c-1.684-1.425-3.664-2.144-5.953-2.144
			c-2.082,0-3.95,0.601-5.605,1.808c-1.655,1.2-2.957,2.845-3.917,4.927c-0.96,2.081-1.431,4.443-1.431,7.092
			c0,2.564,0.46,4.888,1.386,6.986c0.92,2.088,2.217,3.748,3.86,4.982c1.649,1.229,3.552,1.847,5.707,1.847
			c1.543,0,2.968-0.325,4.259-0.971c1.302-0.651,2.379-1.56,3.243-2.744c0.858-1.189,1.403-2.564,1.633-4.136h1.279
			c-0.274,1.824-0.903,3.412-1.885,4.775c-0.982,1.358-2.211,2.413-3.682,3.159C425.435,725.788,423.813,726.164,422.057,726.164z"
			/>
		<path style="fill:#99C72F;" d="M451.28,726.164c-2.278,0-4.327-0.656-6.139-1.976c-1.813-1.313-3.244-3.108-4.299-5.381
			c-1.049-2.272-1.571-4.831-1.571-7.671c0-2.861,0.522-5.426,1.571-7.688c1.055-2.267,2.486-4.057,4.299-5.369
			c1.812-1.319,3.86-1.976,6.139-1.976c2.272,0,4.314,0.656,6.127,1.98c1.807,1.319,3.238,3.114,4.293,5.382
			c1.055,2.267,1.588,4.825,1.588,7.67c0,2.84-0.527,5.398-1.577,7.671c-1.049,2.272-2.485,4.068-4.298,5.381
			C455.601,725.508,453.553,726.164,451.28,726.164z M451.28,724.952c2.048,0,3.889-0.601,5.521-1.813
			c1.627-1.206,2.912-2.856,3.86-4.943c0.948-2.093,1.42-4.45,1.42-7.06c0-2.62-0.478-4.977-1.432-7.059
			c-0.948-2.082-2.233-3.731-3.86-4.943c-1.621-1.218-3.462-1.824-5.51-1.824c-2.043,0-3.878,0.606-5.505,1.824
			c-1.633,1.212-2.924,2.861-3.872,4.943s-1.42,4.438-1.42,7.059c0,2.609,0.466,4.967,1.409,7.06
			c0.948,2.087,2.233,3.737,3.86,4.943C447.386,724.352,449.227,724.952,451.28,724.952z"/>
		<path style="fill:#99C72F;" d="M471.817,725.558v-29.004h1.212v4.304h0.151c0.527-1.403,1.476-2.536,2.839-3.395
			c1.369-0.854,3.014-1.279,4.938-1.279c2.194,0,3.939,0.532,5.241,1.615c1.302,1.089,2.199,2.536,2.693,4.349h0.146
			c0.482-1.813,1.448-3.26,2.912-4.349c1.459-1.083,3.283-1.615,5.471-1.615c2.907,0,5.062,0.914,6.453,2.761
			c1.392,1.846,2.082,4.225,2.082,7.132v19.481h-1.206v-19.481c0-2.576-0.584-4.663-1.734-6.273
			c-1.161-1.61-3.024-2.419-5.595-2.419c-2.563,0-4.528,0.813-5.886,2.446c-1.363,1.628-2.043,3.709-2.043,6.246v19.481h-1.206
			v-19.481c0-2.576-0.578-4.663-1.739-6.273c-1.156-1.61-3.019-2.419-5.589-2.419c-1.712,0-3.153,0.37-4.332,1.117
			c-1.179,0.74-2.07,1.772-2.683,3.08c-0.605,1.308-0.914,2.806-0.914,4.495v19.481H471.817z"/>
	</g>
</g>
</svg>
