<?xml version="1.0" encoding="utf-8"?>
<!-- Generator: Adobe Illustrator 16.0.2, SVG Export Plug-In . SVG Version: 6.00 Build 0)  -->
<!DOCTYPE svg PUBLIC "-//W3C//DTD SVG 1.1//EN" "http://www.w3.org/Graphics/SVG/1.1/DTD/svg11.dtd">
<svg version="1.1" xmlns="http://www.w3.org/2000/svg" xmlns:xlink="http://www.w3.org/1999/xlink" x="0px" y="0px" width="512px"
	 height="512px" viewBox="0 0 512 512" enable-background="new 0 0 512 512" xml:space="preserve">
<g id="Layer_1">
</g>
<g id="Layer_2">
</g>
<g id="Layer_3">
	<circle cx="256" cy="256" r="256"/>
	<g>
		
			<radialGradient id="SVGID_1_" cx="260.0986" cy="330.0283" r="160.5648" gradientTransform="matrix(0.994 0 0 0.9936 0.5732 1.1201)" gradientUnits="userSpaceOnUse">
			<stop  offset="0.5744" style="stop-color:#130C0E"/>
			<stop  offset="0.7977" style="stop-color:#130C0E"/>
			<stop  offset="1" style="stop-color:#130C0E"/>
		</radialGradient>
		<path fill="url(#SVGID_1_)" d="M393.389,389.076l0.432-0.11c-4.942-6.623-15.021-22.401-17.711-34.994
			c-1.563-7.386-10.064-23.21-20.666-38.392c-7.359-10.568-21.572-29.189-34.705-36.295c0.02-1.648-0.26-3.374-0.938-5.188
			c-2.84-7.266-9.389-7.998-15.141-8.691c-0.478-0.064-0.955-0.124-1.431-0.188c-7.497-8.061-18.934-21.586-20.456-26.617
			c-1.125-3.759-2.531-11.88-3.916-19.689c-1.523-8.719-2.935-16.979-4.311-21.466c-3.365-10.998-10.454-17.376-20.104-18.127
			c-1.011-1.334-2.183-2.479-3.514-3.428c-1.868-1.309-4.136-1.799-6.544-1.375c-6.299,1.138-14.08,8.667-24.447,23.698
			c-4.174,6.096-33.363,45.019-44.666,59.6c-8.416-9.016-27.168-29.937-30.721-37.68c-2.813-6.131-8.577-13.017-15.051-18.013
			c-10.214-7.892-18.519-8.705-23.683-7.958c-6.251,0.896-8.923,4.097-10.05,6.628c-2.767,6.202,0.23,15.367,9.316,28.798
			c8.097,11.908,27.652,42.892,40.556,63.382c11.778,18.691,25.033,35.736,28.284,39.845c0.292,3.726,0.56,7.509,0.787,11.073
			c0.535,8.105,0.969,14.469,1.842,17.902c1.989,7.694,11.924,16.092,15.678,19.026c1.063,5.421,4.227,10.472,9.057,14.397
			c4.248,3.444,9.547,5.847,15.158,6.904c0.313,1.168,0.654,2.28,1.046,3.283c2.493,6.654,6.401,9.899,11.941,12.988
			c6.155,3.423,22.449,7.428,39.688,11.652c14.19,3.459,28.832,7.037,36.152,10.008c11.386,4.571,14.119,12.05,17.841,22.376
			c0.932,2.685,1.976,5.419,3.191,8.278c0.479,1.137,1.44,1.922,2.542,2.236c0.467,0.314,6.902,10.595,7.494,10.684
			c3.597,0.529,12.939-2.212,22.364-5.961l21.37-11.923c8.418-3.366,28.712-14.233,38.764-23.349l3.977-3.479
			c1.938-0.987-1.326-6.189-2.276-8.139C413.464,416.829,398.166,395.48,393.389,389.076z M244.055,261.243
			c-5.611,1.172-11.342,2.387-16.625,3.581c2.63-6.471,6.323-15.129,9.76-22.291v-0.004
			C239.113,249.379,242.091,256.641,244.055,261.243z"/>
		<g>
			<path fill="#9ACD32" d="M165.744,287.396l-0.006,0.002c0.166,9.063,1.906,18.948,4.486,25.198
				c0.537,1.278,1.01,2.903,1.402,4.828c-5.566-7.46-12.928-17.827-19.822-28.718c-13.044-20.674-32.723-51.871-40.947-63.952
				c-10.211-15.01-9.244-20.155-8.7-21.354c0.456-1.075,1.815-1.774,4.004-2.076c11.7-1.679,26.222,11.886,30.69,21.604
				c4.885,10.628,29.748,37.232,33.383,41.101C166.379,271.143,165.658,280.418,165.744,287.396z"/>
			<path fill="#9ACD32" d="M258.225,207.021c1.297-5.899,1.549-12.037,0.691-17.28c-0.135-0.78-0.292-1.503-0.453-2.225
				c1.254,0.572,2.384,1.326,3.465,2.326c2.258,2.15,4.021,5.249,5.219,9.229c1.23,4.065,2.688,12.49,4.088,20.62
				c1.472,8.469,2.832,16.47,4.127,20.742c1.443,4.813,7.725,12.989,13.407,19.722c-5.747-2.816-12.158-5.449-27.083-2.746
				l0.064,0.021c-3.021,0.543-6.38,1.162-9.89,1.877c-3.238-7.351-8.637-20.919-8.915-27.921c0.284-0.373,0.527-0.734,0.781-1.052
				c1.35-1.658,2.673-3.126,3.914-4.565C252.27,220.496,256.24,215.958,258.225,207.021z"/>
			<path fill="#9ACD32" d="M364.173,473.193c-5.233,2.096-17.788,10.834-22.364,10.432c-0.848-2.111-10.223-21.072-10.958-23.082
				c-3.074-8.463-6.022-16.556-14.093-22.506c3.926-0.445,7.449-1.258,10.554-2.334c12.435-4.314,18.7-12.67,22.229-17.423
				c0.416-0.513,0.756-0.995,1.105-1.438c1.334-1.699,1.028-4.16-0.67-5.493c-1.703-1.337-4.162-1.03-5.498,0.669
				c-0.379,0.5-0.756,0.994-1.197,1.561c-2.862,3.788-7.145,9.532-15.011,13.27c-9.722,4.61-22.534,4.933-38.078,1.07
				c-6.005-1.58-12.627-3.225-19.12-4.771c-15.329-3.755-32.7-7.99-37.939-10.938c-8.645-4.832-9.736-7.709-12.674-33.998
				c-2.369-21.076,3.559-48.74,6.372-62.04c0.554-2.62,0.982-4.692,1.212-6.01c0.01-0.095,0.451-2.261,8.365-5.742
				c5.609-2.451,12.934-4.718,19.396-6.685c2.365-0.729,4.559-1.4,6.618-2.065c13.816-4.429,19.645-4.661,29.169,2.43
				c3.646,2.721,6.626,4.573,9.032,6.077c5.199,3.235,6.308,4.045,6.841,7.293c0.056,0.166,0.057,0.441-0.551,0.925
				c-2.943,2.351-11.939,3.225-17.928,0.906c-0.314-0.121-7.814-2.973-15.284,1.911c-5.758,3.739-14.007,8.756-14.077,8.825
				c-1.211,0.739-1.93,2.087-1.902,3.501c0.044,0.12,0.234,7.525-0.266,15.988l0.039,0.125c-0.451,6.617-1.321,13.879-3.067,18.885
				c-0.712,2.036,0.341,4.279,2.377,4.997c2.032,0.712,4.28-0.345,4.998-2.378c1.017-2.873,1.784-6.343,2.327-9.928
				c1.831,3.174,3.586,6.5,5.061,9.699c3.475,7.502,4.476,12.102,4.304,13.719c-0.218,2.139,1.323,4.076,3.476,4.335
				c0.577,0.079,1.194,0,1.724-0.183c1.389-0.48,2.47-1.727,2.62-3.289c0.5-4.756-2.456-12.342-4.975-17.883
				c-3.078-6.626-7.025-13.506-10.994-18.998c0.287-5.508,0.296-10.367,0.236-13.047c2.84-1.717,8.233-5.057,12.336-7.762
				c3.967-2.569,7.857-1.263,8.115-1.17c3.716,1.459,8.566,2.113,13.319,1.793c3.013-0.176,8.614-0.927,12.342-3.914
				c2.683-2.168,3.909-5.115,3.403-8.283c-1.086-6.953-4.992-9.352-10.426-12.735c-2.277-1.41-5.135-3.167-8.492-5.716
				c-12.247-9.129-21.055-8.5-36.276-3.631c-2.019,0.654-4.215,1.326-6.534,2.036c-6.667,2.04-14.256,4.353-20.248,7.024
				c-8.197,3.577-12.219,7.175-12.973,11.604c-0.188,1.164-0.633,3.197-1.174,5.723c-2.938,13.706-8.983,42.238-6.504,64.561
				c0.664,5.997,1.244,10.978,1.87,15.154c-8.205-2.51-14.36-8.625-15.157-15.544c-0.355-3.263-0.598-10.692-0.604-19.947
				c-0.014-2.147-1.774-3.916-3.925-3.906c-2.147,0.015-3.918,1.772-3.907,3.924c-0.015,4.31,0.048,8.182,0.139,11.495
				c-3.464-3.379-6.661-7.174-7.379-10.035c-0.716-2.729-1.171-9.441-1.627-16.571c-0.843-12.579-1.796-26.815-4.775-33.94
				c-1.808-4.412-3.745-13.037-3.905-22.328c-0.174-9.745,1.63-17.473,5.033-21.812c8.746-11.095,43.045-56.713,47.632-63.438
				c12.091-17.573,17.634-20.228,19.452-20.538c0.479-0.072,0.6,0.023,0.656,0.047c3.04,2.154,4.268,6.353,4.801,9.468
				c0.668,4.302,0.474,9.412-0.604,14.368c-1.532,6.943-4.457,10.251-8.82,15.246c-1.215,1.383-2.633,2.974-4.076,4.759
				c-0.58,0.707-1.159,1.546-1.788,2.5c-0.093,0.125-0.15,0.232-0.243,0.358c-6.422,10.154-15.491,32.866-17.71,38.488
				c-4.967,1.268-8.897,2.354-11.022,3.229c-4.469,1.779-7.093,4.66-8.822,9.569c-1.553,4.386-2.539,10.776-4.035,20.456
				c-1.171,7.463-1.829,18.365-2.17,26.227c-0.111,2.193,1.568,3.99,3.76,4.102c2.15,0.125,3.993-1.567,4.104-3.76
				c0.51-10.943,1.208-19.752,2.097-25.373c2.968-19.309,3.699-22.224,8.007-23.943c6.197-2.469,34.26-8.633,53.319-12.087
				c13.235-2.392,17.662-0.218,23.255,2.563c1.982,0.963,4.203,2.067,6.869,3.023c3.905,1.349,7.541,1.782,10.777,2.124
				c5.77,0.655,7.725,1.125,8.781,3.78c1.924,4.876-3.615,8.86-3.914,9.052c-1.779,1.213-2.215,3.655-1.002,5.434
				c1.02,1.477,2.915,2.059,4.509,1.504c0.331-0.11,0.642-0.266,0.942-0.461c1.586-1.102,3.662-3.057,5.229-5.525
				c8.471,5.122,19.638,17.1,30.904,33.303c11.166,16.054,18.389,30.407,19.528,35.783c2.978,13.995,13.48,30.645,19.2,38.282
				c4.391,5.866,22.67,29.37,29.998,42.792C412.822,452.215,371.33,470.352,364.173,473.193z"/>
		</g>
		<path fill="#180E0A" d="M324.438,358.324c-8.643-3.883-18.422-5.408-28.992-4.475c-2.161,0.203-3.745,2.076-3.541,4.234
			c0.2,2.164,2.074,3.747,4.237,3.544c9.245-0.794,17.708,0.463,25.11,3.813c5.563,2.49,10.359,6.199,13.172,10.102
			c1.037,1.416,2.869,1.966,4.456,1.416c0.368-0.127,0.679-0.281,1.005-0.531c1.754-1.246,2.13-3.7,0.883-5.455
			c-2.122-2.953-7.05-8.488-16.297-12.66L324.438,358.324z"/>
	</g>
	<g>
		<g>
			<path fill="#9ACD32" d="M225.161,107.885c-0.196,4.236-3.182,7.523-6.668,7.346c-3.488-0.178-6.154-3.753-5.957-7.991
				c0.196-4.242,3.18-7.53,6.667-7.353C222.691,100.066,225.358,103.643,225.161,107.885z"/>
		</g>
		<g>
			<path fill="#9ACD32" d="M374.862,77.337c-0.23,4.998-3.757,8.875-7.874,8.664c-4.114-0.21-7.259-4.427-7.026-9.424
				c0.23-4.998,3.75-8.884,7.865-8.674C371.944,68.113,375.094,72.339,374.862,77.337z"/>
		</g>
		<g>
			<path fill="#9ACD32" d="M339.199,202.213c-0.263,5.638-4.24,10.018-8.881,9.781c-4.648-0.238-8.201-5.003-7.942-10.64
				c0.264-5.644,4.241-10.026,8.889-9.788C335.907,191.802,339.46,196.569,339.199,202.213z"/>
		</g>
		<g>
			<polygon fill="#9ACD32" points="301.602,54.204 330.657,62.537 304.581,77.389 305.132,107.782 284.165,87.112 256.967,97.304 
				269.38,69.402 251.862,45.511 280.849,49.553 297.162,23.316 			"/>
		</g>
		<g>
			<path fill="#9ACD32" d="M168.709,176.126c-0.21,4.522-3.406,8.034-7.13,7.844c-3.728-0.19-6.58-4.01-6.371-8.533
				c0.209-4.535,3.402-8.045,7.13-7.855C166.063,167.772,168.919,171.593,168.709,176.126z"/>
		</g>
		<g>
			<path fill="#9ACD32" d="M104.669,175.764c-1.966-10.704-6.988-19.111-15.078-25.226c-8.077-6.102-16.545-7.883-25.4-5.347
				l-0.242-1.309c8.85-2.537,15.85-8.754,21.005-18.659c5.144-9.903,6.731-20.195,4.763-30.908l1.092-0.31
				c1.954,10.67,6.983,19.07,15.074,25.194c8.086,6.135,16.545,7.916,25.4,5.378l0.239,1.31
				c-8.847,2.539-15.849,8.754-20.993,18.659c-5.152,9.892-6.737,20.194-4.775,30.909L104.669,175.764L104.669,175.764z"/>
		</g>
		<g>
			<path fill="#9ACD32" d="M151.237,67.985c-3.215-10.886-9.422-19.048-18.617-24.497l0.602-1.12
				c9.197,5.451,19.06,6.808,29.602,4.074c10.541-2.735,18.256-8.657,23.156-17.765l1.128,0.668
				c-4.884,9.081-5.728,19.073-2.522,29.974c3.201,10.895,9.414,19.065,18.612,24.514l-0.601,1.118
				c-9.197-5.449-19.072-6.815-29.603-4.073c-10.54,2.727-18.257,8.656-23.152,17.758l-1.13-0.67
				C153.606,88.865,154.458,78.867,151.237,67.985z"/>
		</g>
		<g>
			<path fill="#9ACD32" d="M383.157,145.811c-3.585-14.767-11.205-25.815-22.863-33.115l0.844-1.522
				c11.655,7.299,24.408,9.022,38.241,5.171c13.847-3.851,24.194-12.009,31.065-24.467l1.424,0.895
				c-6.832,12.416-8.471,26.036-4.902,40.834c3.576,14.786,11.188,25.823,22.855,33.136l-0.842,1.524
				c-11.666-7.303-24.412-9.026-38.253-5.175c-13.846,3.852-24.194,12.011-31.053,24.468l-1.435-0.895
				C385.105,174.209,386.741,160.587,383.157,145.811z"/>
		</g>
		<g>
			<path fill="#9ACD32" d="M292.312,183.463c1.375,0.441,2.918,0.345,4.337-0.38l56.847-29.264c2.758-1.419,3.858-4.883,2.427-7.648
				c-1.427-2.766-4.89-3.882-7.646-2.461l-56.846,29.26c-2.76,1.42-3.857,4.882-2.43,7.648c0.734,1.423,1.94,2.402,3.315,2.847
				L292.312,183.463z"/>
		</g>
		<g>
			<path fill="#9ACD32" d="M268.31,162.545c0.936-0.646,1.641-1.614,1.92-2.774l11.155-46.442c0.54-2.252-0.919-4.356-3.227-4.647
				c-2.306-0.289-4.661,1.334-5.2,3.587l-11.157,46.441c-0.538,2.252,0.921,4.356,3.227,4.646c1.185,0.15,2.349-0.169,3.284-0.814
				L268.31,162.545z"/>
		</g>
		<g>
			<path fill="#9ACD32" d="M168.538,134.714c0.323,1.537,1.132,2.976,2.357,3.993l49.114,40.687
				c2.381,1.974,5.515,1.373,6.911-1.327c1.402-2.699,0.59-6.565-1.792-8.537l-49.114-40.688c-2.383-1.974-5.514-1.374-6.917,1.327
				c-0.72,1.387-0.882,3.014-0.558,4.551L168.538,134.714z"/>
		</g>
	</g>
</g>
</svg>
