<?xml version="1.0" encoding="utf-8"?>
<!-- Generator: Adobe Illustrator 16.0.2, SVG Export Plug-In . SVG Version: 6.00 Build 0)  -->
<!DOCTYPE svg PUBLIC "-//W3C//DTD SVG 1.1//EN" "http://www.w3.org/Graphics/SVG/1.1/DTD/svg11.dtd">
<svg version="1.1" xmlns="http://www.w3.org/2000/svg" xmlns:xlink="http://www.w3.org/1999/xlink" x="0px" y="0px"
	 width="261.334px" height="62px" viewBox="0 0 261.334 62" enable-background="new 0 0 261.334 62" xml:space="preserve">
<g id="Layer_1">
</g>
<g id="Layer_2">
</g>
<g id="Layer_3">
	
		<rect x="-996.145" y="-224.39" display="none" fill-rule="evenodd" clip-rule="evenodd" fill="#0F172A" width="2253.007" height="512"/>
	<g>
		<g>
			<path fill="#9ACD32" d="M59.021,47.513V17.354h4.956l11.072,25.16l10.861-25.16h4.745v30.158h-3.479V22.774L76.462,47.513h-3.079
				L62.5,22.774v24.738H59.021z"/>
			<path fill="#9ACD32" d="M101.728,17.354v3.69h-3.901v-3.69H101.728z M101.728,25.368v22.145h-3.901V25.368H101.728z"/>
			<path fill="#9ACD32" d="M107.423,40.827c0-4.541,2.994-6.812,8.984-6.812c1.926,0,3.852,0.141,5.778,0.422V32.35
				c0-2.545-1.989-3.817-5.969-3.817c-2.277,0-4.611,0.352-7.002,1.054v-3.163c2.391-0.703,4.725-1.055,7.002-1.055
				c6.581,0,9.87,2.292,9.87,6.876v15.269h-2.193l-1.35-2.192c-2.207,1.462-4.611,2.192-7.213,2.192
				C110.059,47.513,107.423,45.285,107.423,40.827z M116.407,37.179c-3.389,0-5.083,1.195-5.083,3.586
				c0,2.39,1.336,3.585,4.007,3.585c2.7,0,4.984-0.717,6.854-2.151v-4.598C120.259,37.319,118.333,37.179,116.407,37.179z"/>
			<path fill="#9ACD32" d="M141.694,17.354v21.47c0,5.793-3.973,8.688-11.916,8.688v-4.851c4.218,0,6.327-1.279,6.327-3.838v-21.47
				H141.694z"/>
			<path fill="#9ACD32" d="M167.425,25.368v22.145h-4.366l-0.675-2.825c-2.545,1.884-5.244,2.825-8.099,2.825
				c-4.527,0-6.791-2.678-6.791-8.035V25.368h5.589V39.33c0,2.446,1.068,3.67,3.206,3.67c1.813,0,3.662-0.724,5.547-2.173V25.368
				H167.425z"/>
			<path fill="#9ACD32" d="M172.697,26.275c2.938-0.604,6.046-0.907,9.321-0.907c7.522,0,11.284,3.509,11.284,10.524
				c0,7.747-3.501,11.62-10.503,11.62c-1.491,0-2.995-0.351-4.514-1.054v9.068h-5.589V26.275z M178.286,41.734
				c1.392,0.76,2.89,1.139,4.492,1.139c3.332,0,4.998-2.341,4.998-7.022c0-3.979-1.842-5.969-5.525-5.969
				c-1.589,0-2.91,0.099-3.965,0.295V41.734z"/>
			<path fill="#9ACD32" d="M203.109,17.354v4.429h-5.589v-4.429H203.109z M203.109,25.368v22.145h-5.589V25.368H203.109z"/>
			<path fill="#9ACD32" d="M208.065,21.783h4.134l0.844,3.585h5.567v4.429h-4.956v10.188c0,2.066,0.893,3.1,2.679,3.1h2.277v4.429
				h-4.977c-3.712,0-5.568-1.989-5.568-5.968V21.783z"/>
			<path fill="#9ACD32" d="M231.75,25.368c6.721,0,10.081,3.431,10.081,10.292c0,0.914-0.063,1.828-0.189,2.742h-14.7
				c0,3.121,2.292,4.682,6.876,4.682c2.235,0,4.471-0.211,6.706-0.633v4.43c-1.954,0.422-4.331,0.632-7.128,0.632
				c-8.029,0-12.043-3.774-12.043-11.325C221.353,28.975,224.818,25.368,231.75,25.368z M226.941,34.521h9.448v-0.169
				c0-3.064-1.547-4.598-4.64-4.598C228.798,29.755,227.194,31.345,226.941,34.521z"/>
			<path fill="#9ACD32" d="M246.028,47.513V25.368h4.323l0.696,2.826c1.94-1.884,3.993-2.826,6.158-2.826v4.514
				c-2.081,0-3.943,0.864-5.589,2.594v15.037H246.028z"/>
		</g>
		<g>
			<radialGradient id="SVGID_1_" cx="26.0313" cy="38.8945" r="19.9794" gradientUnits="userSpaceOnUse">
				<stop  offset="0.5744" style="stop-color:#130C0E"/>
				<stop  offset="0.7977" style="stop-color:#130C0E"/>
				<stop  offset="1" style="stop-color:#130C0E"/>
			</radialGradient>
			<path fill="url(#SVGID_1_)" d="M43.322,47.185l0.056-0.014c-0.631-0.846-1.917-2.859-2.26-4.467
				c-0.199-0.943-1.284-2.963-2.637-4.9c-0.939-1.349-2.753-3.726-4.429-4.633c0.003-0.21-0.033-0.431-0.119-0.662
				c-0.362-0.927-1.198-1.021-1.932-1.109c-0.062-0.008-0.122-0.016-0.183-0.023c-0.957-1.029-2.416-2.755-2.61-3.397
				c-0.144-0.479-0.322-1.517-0.499-2.513c-0.194-1.113-0.375-2.167-0.551-2.74c-0.429-1.403-1.333-2.218-2.564-2.313
				c-0.129-0.171-0.278-0.316-0.448-0.438c-0.238-0.167-0.528-0.23-0.835-0.176c-0.804,0.146-1.797,1.106-3.119,3.024
				c-0.533,0.778-4.257,5.746-5.699,7.607c-1.073-1.15-3.466-3.821-3.92-4.81c-0.358-0.782-1.094-1.661-1.92-2.299
				c-1.303-1.007-2.362-1.111-3.021-1.016c-0.798,0.114-1.139,0.522-1.282,0.846c-0.353,0.792,0.029,1.962,1.188,3.676
				c1.033,1.52,3.528,5.475,5.175,8.09c1.502,2.386,3.193,4.562,3.608,5.086c0.037,0.476,0.071,0.958,0.101,1.413
				c0.068,1.034,0.124,1.847,0.235,2.285c0.253,0.982,1.521,2.054,2,2.429c0.136,0.691,0.539,1.336,1.155,1.837
				c0.542,0.44,1.218,0.746,1.935,0.882c0.039,0.148,0.083,0.291,0.133,0.419c0.318,0.849,0.817,1.264,1.523,1.657
				c0.786,0.438,2.864,0.948,5.064,1.487c1.811,0.441,3.678,0.898,4.612,1.277c1.452,0.584,1.802,1.538,2.276,2.856
				c0.119,0.343,0.252,0.691,0.407,1.057c0.061,0.145,0.184,0.245,0.324,0.285c0.06,0.04,0.128,0.069,0.204,0.081
				c0.458,0.067,1.403,0.105,2.606-0.373l0.002-0.005c1.073-0.43,7.344-3.238,8.627-4.402l0.038-0.013
				c0.247-0.127,0.342-0.421,0.221-0.67C45.884,50.727,43.932,48.002,43.322,47.185z M24.27,30.868
				c-0.716,0.15-1.447,0.305-2.122,0.457c0.336-0.825,0.808-1.931,1.246-2.845v-0.001C23.639,29.354,24.019,30.281,24.27,30.868z"/>
			<g>
				<path fill="#9ACD32" d="M14.277,34.207L14.277,34.207c0.021,1.156,0.243,2.418,0.572,3.216c0.068,0.163,0.129,0.37,0.179,0.616
					c-0.71-0.952-1.649-2.275-2.529-3.665c-1.664-2.639-4.175-6.621-5.225-8.163c-1.303-1.915-1.179-2.572-1.109-2.726
					c0.059-0.137,0.231-0.226,0.511-0.265c1.493-0.214,3.346,1.518,3.916,2.758c0.623,1.356,3.795,4.752,4.259,5.246
					C14.358,32.132,14.267,33.315,14.277,34.207z"/>
				<path fill="#9ACD32" d="M26.077,23.947c0.165-0.752,0.197-1.536,0.088-2.205c-0.017-0.1-0.037-0.191-0.058-0.284
					c0.16,0.073,0.304,0.17,0.442,0.297c0.288,0.274,0.513,0.67,0.666,1.178c0.156,0.52,0.343,1.595,0.521,2.632
					c0.188,1.081,0.361,2.103,0.526,2.647c0.185,0.614,0.985,1.658,1.71,2.518c-0.732-0.359-1.551-0.695-3.455-0.351l0.008,0.003
					c-0.385,0.069-0.813,0.148-1.262,0.239c-0.413-0.938-1.102-2.67-1.137-3.563c0.036-0.048,0.067-0.094,0.1-0.135
					c0.172-0.211,0.341-0.398,0.499-0.582C25.317,25.668,25.824,25.089,26.077,23.947z"/>
				<path fill="#9ACD32" d="M37.593,56.768c-0.668,0.268-1.371,0.381-1.955,0.33c-0.107-0.27-0.201-0.535-0.295-0.791
					c-0.392-1.081-0.768-2.113-1.798-2.873c0.501-0.057,0.951-0.16,1.347-0.298c1.587-0.551,2.386-1.617,2.836-2.224
					c0.054-0.065,0.097-0.127,0.142-0.184c0.17-0.217,0.131-0.531-0.086-0.701c-0.217-0.171-0.53-0.132-0.701,0.085
					c-0.049,0.064-0.097,0.127-0.153,0.199c-0.364,0.483-0.911,1.217-1.915,1.694c-1.24,0.588-2.874,0.629-4.858,0.137
					c-0.766-0.202-1.61-0.412-2.439-0.609c-1.955-0.479-4.172-1.021-4.84-1.396c-1.104-0.616-1.242-0.983-1.617-4.339
					c-0.303-2.69,0.454-6.221,0.813-7.919c0.071-0.334,0.126-0.599,0.155-0.767c0.001-0.013,0.058-0.289,1.067-0.733
					c0.715-0.313,1.65-0.602,2.475-0.854c0.302-0.092,0.581-0.178,0.844-0.263c1.764-0.565,2.507-0.595,3.722,0.31
					c0.466,0.348,0.846,0.584,1.152,0.776c0.664,0.413,0.805,0.516,0.873,0.931c0.007,0.021,0.007,0.056-0.07,0.118
					c-0.375,0.3-1.523,0.411-2.287,0.115c-0.04-0.016-0.997-0.379-1.95,0.244c-0.734,0.478-1.787,1.117-1.796,1.126
					c-0.154,0.095-0.246,0.267-0.242,0.447c0.005,0.016,0.029,0.96-0.034,2.041l0.005,0.016c-0.058,0.845-0.169,1.771-0.392,2.41
					c-0.091,0.26,0.044,0.547,0.304,0.638c0.259,0.091,0.546-0.044,0.638-0.303c0.13-0.367,0.228-0.811,0.297-1.268
					c0.233,0.405,0.457,0.829,0.646,1.238c0.443,0.957,0.571,1.544,0.549,1.751c-0.028,0.272,0.169,0.52,0.443,0.553
					c0.073,0.01,0.152,0,0.22-0.023c0.178-0.062,0.315-0.22,0.334-0.419c0.064-0.607-0.313-1.576-0.634-2.283
					c-0.394-0.846-0.896-1.724-1.403-2.425c0.037-0.703,0.038-1.323,0.03-1.665c0.362-0.22,1.051-0.646,1.574-0.991
					c0.506-0.327,1.003-0.161,1.035-0.148c0.475,0.186,1.093,0.27,1.699,0.229c0.385-0.022,1.1-0.118,1.575-0.5
					c0.342-0.276,0.499-0.652,0.434-1.057c-0.138-0.888-0.637-1.194-1.33-1.626c-0.29-0.18-0.654-0.404-1.083-0.729
					c-1.563-1.165-2.687-1.085-4.629-0.463c-0.257,0.083-0.537,0.169-0.833,0.26c-0.852,0.26-1.819,0.556-2.584,0.896
					c-1.046,0.456-1.559,0.915-1.655,1.48c-0.023,0.149-0.08,0.408-0.149,0.73c-0.375,1.75-1.146,5.392-0.83,8.24
					c0.085,0.766,0.159,1.401,0.239,1.935c-1.048-0.32-1.833-1.101-1.935-1.984c-0.045-0.416-0.076-1.364-0.077-2.545
					c-0.001-0.274-0.226-0.501-0.5-0.499s-0.5,0.226-0.499,0.501c-0.002,0.55,0.006,1.044,0.018,1.467
					c-0.441-0.432-0.85-0.916-0.941-1.281c-0.091-0.348-0.149-1.205-0.207-2.114c-0.107-1.605-0.229-3.423-0.609-4.332
					c-0.231-0.563-0.479-1.664-0.498-2.851c-0.022-1.243,0.208-2.229,0.642-2.783c1.116-1.417,5.492-7.239,6.077-8.098
					c1.543-2.242,2.25-2.581,2.481-2.621c0.062-0.01,0.077,0.003,0.084,0.006c0.388,0.275,0.545,0.812,0.612,1.209
					c0.086,0.549,0.061,1.201-0.077,1.833c-0.194,0.887-0.568,1.309-1.125,1.946c-0.154,0.177-0.336,0.38-0.52,0.607
					c-0.074,0.09-0.147,0.197-0.229,0.319c-0.012,0.016-0.019,0.029-0.031,0.046c-0.819,1.296-1.977,4.194-2.26,4.912
					c-0.633,0.161-1.135,0.301-1.405,0.412c-0.57,0.228-0.905,0.595-1.126,1.221c-0.198,0.561-0.324,1.376-0.516,2.611
					c-0.148,0.952-0.232,2.344-0.276,3.348c-0.014,0.279,0.2,0.509,0.479,0.523c0.274,0.016,0.51-0.2,0.523-0.48
					c0.065-1.396,0.154-2.521,0.268-3.238c0.379-2.464,0.473-2.836,1.021-3.056c0.791-0.315,4.372-1.102,6.804-1.543
					c1.688-0.305,2.253-0.027,2.967,0.327c0.253,0.123,0.536,0.264,0.876,0.386c0.499,0.173,0.963,0.228,1.375,0.271
					c0.736,0.084,0.985,0.144,1.121,0.482c0.245,0.622-0.462,1.131-0.5,1.155c-0.227,0.155-0.282,0.467-0.128,0.693
					c0.131,0.188,0.372,0.263,0.576,0.192c0.042-0.015,0.081-0.034,0.119-0.059c0.203-0.141,0.468-0.391,0.668-0.706
					c1.08,0.654,2.505,2.183,3.942,4.251c1.425,2.049,2.347,3.881,2.491,4.567c0.381,1.786,1.721,3.911,2.45,4.886
					c0.561,0.749,2.266,3.129,3.2,4.842C44.497,53.752,38.506,56.404,37.593,56.768z"/>
			</g>
			<path fill="#180E0A" d="M34.525,43.26c-1.103-0.496-2.351-0.69-3.699-0.571c-0.276,0.025-0.478,0.265-0.452,0.541
				c0.025,0.275,0.265,0.478,0.541,0.452c1.18-0.102,2.259,0.059,3.204,0.486c0.709,0.317,1.321,0.791,1.68,1.289
				c0.133,0.181,0.366,0.251,0.569,0.181c0.047-0.017,0.086-0.035,0.128-0.067c0.224-0.159,0.271-0.473,0.112-0.696
				c-0.271-0.377-0.899-1.084-2.079-1.616L34.525,43.26z"/>
		</g>
		<g>
			<g>
				
					<ellipse transform="matrix(0.9988 0.0484 -0.0484 0.9988 0.5946 -0.9661)" fill="#9ACD32" cx="20.233" cy="11.787" rx="0.776" ry="0.898"/>
			</g>
			<g>
				
					<ellipse transform="matrix(0.9988 0.049 -0.049 0.9988 0.4486 -1.8771)" fill="#9ACD32" cx="38.482" cy="8.205" rx="0.916" ry="1.06"/>
			</g>
			<g>
				
					<ellipse transform="matrix(0.9988 0.0486 -0.0486 0.9988 1.1493 -1.6253)" fill="#9ACD32" cx="33.983" cy="22.813" rx="1.034" ry="1.196"/>
			</g>
			<g>
				<polygon fill="#9ACD32" points="30.398,5.542 33.968,6.518 30.765,8.256 30.832,11.813 28.257,9.394 24.916,10.586 26.44,7.321 
					24.289,4.525 27.85,4.998 29.854,1.928 				"/>
			</g>
			<g>
				
					<ellipse transform="matrix(0.9988 0.0488 -0.0488 0.9988 0.981 -0.6231)" fill="#9ACD32" cx="13.245" cy="19.77" rx="0.83" ry="0.96"/>
			</g>
			<g>
				<path fill="#9ACD32" d="M6.208,19.768c-0.241-1.252-0.858-2.236-1.852-2.951s-2.033-0.923-3.121-0.626l-0.029-0.153
					c1.087-0.297,1.947-1.024,2.58-2.184c0.632-1.159,0.827-2.363,0.585-3.617L4.505,10.2c0.24,1.249,0.858,2.231,1.853,2.948
					c0.993,0.718,2.032,0.927,3.12,0.63l0.029,0.152c-1.087,0.298-1.947,1.025-2.579,2.184c-0.633,1.158-0.827,2.364-0.587,3.617
					L6.208,19.768L6.208,19.768z"/>
			</g>
			<g>
				<path fill="#9ACD32" d="M11.929,7.155c-0.396-1.274-1.157-2.229-2.287-2.867l0.073-0.131c1.13,0.638,2.342,0.797,3.637,0.477
					s2.242-1.013,2.845-2.079l0.139,0.078c-0.601,1.063-0.704,2.232-0.311,3.508s1.156,2.231,2.287,2.869l-0.074,0.131
					c-1.13-0.638-2.343-0.798-3.637-0.477c-1.294,0.319-2.242,1.013-2.844,2.078l-0.139-0.078
					C12.22,9.599,12.324,8.429,11.929,7.155z"/>
			</g>
			<g>
				<path fill="#9ACD32" d="M40.417,16.263c-0.44-1.729-1.377-3.021-2.809-3.875l0.104-0.179c1.432,0.854,2.998,1.056,4.697,0.605
					c1.701-0.45,2.973-1.405,3.816-2.863l0.175,0.104c-0.839,1.453-1.041,3.047-0.603,4.779c0.439,1.729,1.375,3.021,2.808,3.878
					l-0.103,0.178c-1.434-0.854-3-1.057-4.699-0.605c-1.701,0.451-2.973,1.405-3.814,2.863l-0.177-0.104
					C40.656,19.586,40.857,17.992,40.417,16.263z"/>
			</g>
			<g>
				<path fill="#9ACD32" d="M29.258,20.669c0.169,0.052,0.358,0.04,0.532-0.045l6.983-3.424c0.339-0.166,0.474-0.571,0.298-0.896
					c-0.175-0.323-0.601-0.454-0.939-0.288l-6.982,3.425c-0.339,0.166-0.474,0.571-0.299,0.895
					C28.941,20.503,29.089,20.617,29.258,20.669L29.258,20.669z"/>
			</g>
			<g>
				<path fill="#9ACD32" d="M26.31,18.221c0.114-0.075,0.201-0.188,0.235-0.324l1.37-5.436c0.066-0.264-0.112-0.51-0.396-0.543
					c-0.282-0.034-0.572,0.156-0.639,0.419l-1.37,5.436c-0.066,0.264,0.113,0.51,0.396,0.544
					C26.052,18.333,26.194,18.296,26.31,18.221L26.31,18.221z"/>
			</g>
			<g>
				<path fill="#9ACD32" d="M14.054,14.964c0.039,0.18,0.139,0.349,0.289,0.468l6.033,4.761c0.293,0.231,0.678,0.161,0.85-0.155
					c0.172-0.315,0.072-0.768-0.221-0.999l-6.033-4.761c-0.293-0.231-0.677-0.161-0.85,0.155
					C14.034,14.595,14.014,14.785,14.054,14.964L14.054,14.964z"/>
			</g>
		</g>
	</g>
</g>
</svg>
